<?xml version="1.0" encoding="UTF-8" standalone="no"?>
<!DOCTYPE svg PUBLIC "-//W3C//DTD SVG 1.1//EN"
 "http://www.w3.org/Graphics/SVG/1.1/DTD/svg11.dtd">
<!-- Generated by graphviz version 2.38.0 (20140413.2041)
 -->
<!-- Title: %3 Pages: 1 -->
<svg width="274pt" height="452pt"
 viewBox="0.00 0.00 274.00 452.00" xmlns="http://www.w3.org/2000/svg" xmlns:xlink="http://www.w3.org/1999/xlink">
<g id="graph0" class="graph" transform="scale(1 1) rotate(0) translate(4 448)">
<title>%3</title>
<polygon fill="white" stroke="none" points="-4,4 -4,-448 270,-448 270,4 -4,4"/>
<!-- 1d8eed0 -->
<g id="node1" class="node"><title>1d8eed0</title>
<ellipse fill="none" stroke="black" cx="103" cy="-426" rx="29.795" ry="18"/>
<text text-anchor="middle" x="103" y="-422.3" font-family="Times New Roman,serif" font-size="14.00">Input</text>
</g>
<!-- 1d8ef10 -->
<g id="node2" class="node"><title>1d8ef10</title>
<ellipse fill="none" stroke="black" cx="142" cy="-324" rx="27" ry="18"/>
<text text-anchor="middle" x="142" y="-320.3" font-family="Times New Roman,serif" font-size="14.00">&lt;=</text>
</g>
<!-- 1d8eed0&#45;&gt;1d8ef10 -->
<g id="edge1" class="edge"><title>1d8eed0&#45;&gt;1d8ef10</title>
<path fill="none" stroke="black" d="M105.161,-407.885C107.277,-394.445 111.199,-375.481 118,-360 119.653,-356.237 121.725,-352.453 123.955,-348.834"/>
<polygon fill="black" stroke="black" points="127.021,-350.546 129.676,-340.289 121.204,-346.652 127.021,-350.546"/>
<text text-anchor="middle" x="126" y="-378.8" font-family="Times New Roman,serif" font-size="14.00">[1]</text>
<text text-anchor="middle" x="126" y="-363.8" font-family="Times New Roman,serif" font-size="14.00">5</text>
</g>
<!-- 1da55b0 -->
<g id="node3" class="node"><title>1da55b0</title>
<ellipse fill="none" stroke="black" cx="179" cy="-426" rx="27" ry="18"/>
<text text-anchor="middle" x="179" y="-422.3" font-family="Times New Roman,serif" font-size="14.00">1</text>
</g>
<!-- 1d8ef10&#45;&gt;1da55b0 -->
<g id="edge2" class="edge"><title>1d8ef10&#45;&gt;1da55b0</title>
<path fill="none" stroke="black" stroke-dasharray="1,5" d="M138.814,-342.032C137.072,-355.596 136.426,-374.768 143,-390 145.434,-395.64 149.256,-400.827 153.517,-405.383"/>
<polygon fill="black" stroke="black" points="151.273,-408.078 160.936,-412.423 156.091,-403.001 151.273,-408.078"/>
<text text-anchor="middle" x="151" y="-371.3" font-family="Times New Roman,serif" font-size="14.00">[2]</text>
</g>
<!-- 1d8ef30 -->
<g id="node4" class="node"><title>1d8ef30</title>
<ellipse fill="none" stroke="black" cx="210" cy="-222" rx="27" ry="18"/>
<text text-anchor="middle" x="210" y="-218.3" font-family="Times New Roman,serif" font-size="14.00">&#45;</text>
</g>
<!-- 1d8ef10&#45;&gt;1d8ef30 -->
<g id="edge4" class="edge"><title>1d8ef10&#45;&gt;1d8ef30</title>
<path fill="none" stroke="black" d="M152.625,-307.375C163.589,-291.252 180.838,-265.885 193.563,-247.172"/>
<polygon fill="black" stroke="black" points="196.496,-249.083 199.225,-238.845 190.708,-245.146 196.496,-249.083"/>
<text text-anchor="middle" x="195" y="-276.8" font-family="Times New Roman,serif" font-size="14.00">[4]</text>
<text text-anchor="middle" x="195" y="-261.8" font-family="Times New Roman,serif" font-size="14.00">5</text>
</g>
<!-- 1da5510 -->
<g id="node7" class="node"><title>1da5510</title>
<ellipse fill="none" stroke="black" cx="96" cy="-222" rx="27" ry="18"/>
<text text-anchor="middle" x="96" y="-218.3" font-family="Times New Roman,serif" font-size="14.00">&#45;</text>
</g>
<!-- 1d8ef10&#45;&gt;1da5510 -->
<g id="edge10" class="edge"><title>1d8ef10&#45;&gt;1da5510</title>
<path fill="none" stroke="black" d="M120.066,-313.306C109.866,-307.542 98.7404,-299.155 93,-288 87.0429,-276.424 87.0571,-262.098 88.8737,-249.844"/>
<polygon fill="black" stroke="black" points="92.3672,-250.212 90.8292,-239.73 85.4945,-248.884 92.3672,-250.212"/>
<text text-anchor="middle" x="104.5" y="-276.8" font-family="Times New Roman,serif" font-size="14.00">[10]</text>
<text text-anchor="middle" x="104.5" y="-261.8" font-family="Times New Roman,serif" font-size="14.00">5</text>
</g>
<!-- 1da55b0&#45;&gt;1d8ef10 -->
<g id="edge3" class="edge"><title>1da55b0&#45;&gt;1d8ef10</title>
<path fill="none" stroke="black" d="M174.596,-408.194C170.936,-394.924 165.319,-376.038 159,-360 157.762,-356.858 156.359,-353.607 154.903,-350.412"/>
<polygon fill="black" stroke="black" points="157.949,-348.669 150.486,-341.149 151.631,-351.682 157.949,-348.669"/>
<text text-anchor="middle" x="178" y="-378.8" font-family="Times New Roman,serif" font-size="14.00">[3]</text>
<text text-anchor="middle" x="178" y="-363.8" font-family="Times New Roman,serif" font-size="14.00">1</text>
</g>
<!-- 1da6590 -->
<g id="node5" class="node"><title>1da6590</title>
<ellipse fill="none" stroke="black" cx="239" cy="-324" rx="27" ry="18"/>
<text text-anchor="middle" x="239" y="-320.3" font-family="Times New Roman,serif" font-size="14.00">1</text>
</g>
<!-- 1d8ef30&#45;&gt;1da6590 -->
<g id="edge5" class="edge"><title>1d8ef30&#45;&gt;1da6590</title>
<path fill="none" stroke="black" stroke-dasharray="1,5" d="M211.455,-240.182C212.926,-253.492 215.759,-272.254 221,-288 222.113,-291.343 223.507,-294.759 225.025,-298.083"/>
<polygon fill="black" stroke="black" points="221.91,-299.678 229.498,-307.072 228.177,-296.56 221.91,-299.678"/>
<text text-anchor="middle" x="229" y="-269.3" font-family="Times New Roman,serif" font-size="14.00">[5]</text>
</g>
<!-- 1da5530 -->
<g id="node6" class="node"><title>1da5530</title>
<ellipse fill="none" stroke="black" cx="135" cy="-120" rx="27" ry="18"/>
<text text-anchor="middle" x="135" y="-116.3" font-family="Times New Roman,serif" font-size="14.00">+</text>
</g>
<!-- 1d8ef30&#45;&gt;1da5530 -->
<g id="edge7" class="edge"><title>1d8ef30&#45;&gt;1da5530</title>
<path fill="none" stroke="black" d="M198.281,-205.375C186.063,-189.083 166.766,-163.355 152.692,-144.589"/>
<polygon fill="black" stroke="black" points="155.437,-142.415 146.636,-136.515 149.836,-146.615 155.437,-142.415"/>
<text text-anchor="middle" x="192" y="-174.8" font-family="Times New Roman,serif" font-size="14.00">[7]</text>
<text text-anchor="middle" x="192" y="-159.8" font-family="Times New Roman,serif" font-size="14.00">4</text>
</g>
<!-- 1da6590&#45;&gt;1d8ef30 -->
<g id="edge6" class="edge"><title>1da6590&#45;&gt;1d8ef30</title>
<path fill="none" stroke="black" d="M241.288,-305.906C242.427,-292.478 242.558,-273.518 237,-258 235.444,-253.656 233.13,-249.422 230.499,-245.486"/>
<polygon fill="black" stroke="black" points="233.226,-243.288 224.406,-237.417 227.64,-247.507 233.226,-243.288"/>
<text text-anchor="middle" x="249" y="-276.8" font-family="Times New Roman,serif" font-size="14.00">[6]</text>
<text text-anchor="middle" x="249" y="-261.8" font-family="Times New Roman,serif" font-size="14.00">1</text>
</g>
<!-- 1da5530&#45;&gt;1da5510 -->
<g id="edge8" class="edge"><title>1da5530&#45;&gt;1da5510</title>
<path fill="none" stroke="black" stroke-dasharray="1,5" d="M116.352,-133.061C108.891,-138.986 101.105,-146.831 97,-156 91.7569,-167.712 90.9737,-181.841 91.7231,-193.931"/>
<polygon fill="black" stroke="black" points="88.2432,-194.308 92.7026,-203.919 95.2097,-193.625 88.2432,-194.308"/>
<text text-anchor="middle" x="105" y="-167.3" font-family="Times New Roman,serif" font-size="14.00">[8]</text>
</g>
<!-- 3bac490 -->
<g id="node9" class="node"><title>3bac490</title>
<ellipse fill="none" stroke="black" cx="135" cy="-18" rx="36.2938" ry="18"/>
<text text-anchor="middle" x="135" y="-14.3" font-family="Times New Roman,serif" font-size="14.00">Output</text>
</g>
<!-- 1da5530&#45;&gt;3bac490 -->
<g id="edge14" class="edge"><title>1da5530&#45;&gt;3bac490</title>
<path fill="none" stroke="black" d="M135,-101.581C135,-86.3816 135,-64.0669 135,-46.4644"/>
<polygon fill="black" stroke="black" points="138.5,-46.219 135,-36.2191 131.5,-46.2191 138.5,-46.219"/>
<text text-anchor="middle" x="146.5" y="-72.8" font-family="Times New Roman,serif" font-size="14.00">[14]</text>
<text text-anchor="middle" x="146.5" y="-57.8" font-family="Times New Roman,serif" font-size="14.00">7</text>
</g>
<!-- 1da5510&#45;&gt;1d8ef10 -->
<g id="edge9" class="edge"><title>1da5510&#45;&gt;1d8ef10</title>
<path fill="none" stroke="black" stroke-dasharray="1,5" d="M107.957,-238.462C112.146,-244.357 116.639,-251.279 120,-258 126.058,-270.115 131.075,-284.29 134.78,-296.305"/>
<polygon fill="black" stroke="black" points="131.511,-297.596 137.691,-306.202 138.227,-295.621 131.511,-297.596"/>
<text text-anchor="middle" x="140" y="-269.3" font-family="Times New Roman,serif" font-size="14.00">[9]</text>
</g>
<!-- 1da5510&#45;&gt;1da5530 -->
<g id="edge13" class="edge"><title>1da5510&#45;&gt;1da5530</title>
<path fill="none" stroke="black" d="M104.389,-204.812C107.282,-198.958 110.436,-192.25 113,-186 118.105,-173.553 122.987,-159.44 126.85,-147.552"/>
<polygon fill="black" stroke="black" points="130.263,-148.367 129.961,-137.776 123.593,-146.244 130.263,-148.367"/>
<text text-anchor="middle" x="136.5" y="-174.8" font-family="Times New Roman,serif" font-size="14.00">[13]</text>
<text text-anchor="middle" x="136.5" y="-159.8" font-family="Times New Roman,serif" font-size="14.00">3</text>
</g>
<!-- 3bac6f0 -->
<g id="node8" class="node"><title>3bac6f0</title>
<ellipse fill="none" stroke="black" cx="27" cy="-324" rx="27" ry="18"/>
<text text-anchor="middle" x="27" y="-320.3" font-family="Times New Roman,serif" font-size="14.00">2</text>
</g>
<!-- 1da5510&#45;&gt;3bac6f0 -->
<g id="edge11" class="edge"><title>1da5510&#45;&gt;3bac6f0</title>
<path fill="none" stroke="black" stroke-dasharray="1,5" d="M69.0801,-225.336C47.7632,-228.764 19.2785,-237.21 5,-258 -3.49411,-270.368 1.6932,-286.298 9.15661,-299.292"/>
<polygon fill="black" stroke="black" points="6.21714,-301.192 14.5471,-307.739 12.118,-297.426 6.21714,-301.192"/>
<text text-anchor="middle" x="16.5" y="-269.3" font-family="Times New Roman,serif" font-size="14.00">[11]</text>
</g>
<!-- 3bac6f0&#45;&gt;1da5510 -->
<g id="edge12" class="edge"><title>3bac6f0&#45;&gt;1da5510</title>
<path fill="none" stroke="black" d="M33.9655,-306.441C40.0899,-292.802 49.7645,-273.292 61,-258 64.5855,-253.12 68.8492,-248.275 73.1459,-243.815"/>
<polygon fill="black" stroke="black" points="75.6525,-246.258 80.2943,-236.734 70.7264,-241.285 75.6525,-246.258"/>
<text text-anchor="middle" x="72.5" y="-276.8" font-family="Times New Roman,serif" font-size="14.00">[12]</text>
<text text-anchor="middle" x="72.5" y="-261.8" font-family="Times New Roman,serif" font-size="14.00">2</text>
</g>
</g>
</svg>
