<?xml version="1.0" encoding="UTF-8" standalone="no"?>
<!DOCTYPE svg PUBLIC "-//W3C//DTD SVG 1.1//EN"
 "http://www.w3.org/Graphics/SVG/1.1/DTD/svg11.dtd">
<!-- Generated by graphviz version 2.38.0 (20140413.2041)
 -->
<!-- Title: %3 Pages: 1 -->
<svg width="593pt" height="1441pt"
 viewBox="0.00 0.00 593.00 1441.00" xmlns="http://www.w3.org/2000/svg" xmlns:xlink="http://www.w3.org/1999/xlink">
<g id="graph0" class="graph" transform="scale(1 1) rotate(0) translate(4 1437)">
<title>%3</title>
<polygon fill="white" stroke="none" points="-4,4 -4,-1437 589,-1437 589,4 -4,4"/>
<text text-anchor="middle" x="292.5" y="-7.8" font-family="Times New Roman,serif" font-size="14.00">Profiler of Fibonacci at n=4</text>
<g id="clust4" class="cluster"><title>cluster_1</title>
<polygon fill="none" stroke="black" points="8,-681 8,-1137 157,-1137 157,-681 8,-681"/>
<text text-anchor="middle" x="54" y="-1121.8" font-family="Times New Roman,serif" font-size="14.00">self subspace</text>
</g>
<g id="clust6" class="cluster"><title>cluster_2</title>
<polygon fill="none" stroke="black" points="206,-219 206,-1137 577,-1137 577,-219 206,-219"/>
<text text-anchor="middle" x="252" y="-1121.8" font-family="Times New Roman,serif" font-size="14.00">self subspace</text>
</g>
<g id="clust10" class="cluster"><title>cluster_2_1</title>
<polygon fill="none" stroke="black" points="420,-423 420,-810 569,-810 569,-423 420,-423"/>
<text text-anchor="middle" x="466" y="-794.8" font-family="Times New Roman,serif" font-size="14.00">self subspace</text>
</g>
<g id="clust12" class="cluster"><title>cluster_2_2</title>
<polygon fill="none" stroke="black" points="214,-423 214,-810 363,-810 363,-423 214,-423"/>
<text text-anchor="middle" x="260" y="-794.8" font-family="Times New Roman,serif" font-size="14.00">self subspace</text>
</g>
<!-- input_8aef10 -->
<g id="node1" class="node"><title>input_8aef10</title>
<polygon fill="none" stroke="black" points="246,-1433 210,-1433 210,-1397 246,-1397 246,-1433"/>
<text text-anchor="middle" x="228" y="-1411.3" font-family="Times New Roman,serif" font-size="14.00">I</text>
</g>
<!-- if_8aef30 -->
<g id="node2" class="node"><title>if_8aef30</title>
<polygon fill="none" stroke="black" points="267,-1331 236.835,-1313 267,-1295 297.165,-1313 267,-1331"/>
<text text-anchor="middle" x="267" y="-1309.3" font-family="Times New Roman,serif" font-size="14.00">&lt;=</text>
</g>
<!-- input_8aef10&#45;&gt;if_8aef30 -->
<g id="edge1" class="edge"><title>input_8aef10&#45;&gt;if_8aef30</title>
<path fill="none" stroke="black" d="M230.566,-1396.92C232.965,-1383.51 237.215,-1364.55 244,-1349 246.197,-1343.96 249.101,-1338.85 252.103,-1334.15"/>
<polygon fill="black" stroke="black" points="255.1,-1335.96 257.837,-1325.73 249.314,-1332.02 255.1,-1335.96"/>
<text text-anchor="middle" x="252" y="-1367.8" font-family="Times New Roman,serif" font-size="14.00">[1]</text>
<text text-anchor="middle" x="252" y="-1352.8" font-family="Times New Roman,serif" font-size="14.00">4</text>
</g>
<!-- constant_2dd6650 -->
<g id="node3" class="node"><title>constant_2dd6650</title>
<ellipse fill="none" stroke="black" cx="294" cy="-1415" rx="18" ry="18"/>
<text text-anchor="middle" x="294" y="-1411.3" font-family="Times New Roman,serif" font-size="14.00">2</text>
</g>
<!-- if_8aef30&#45;&gt;constant_2dd6650 -->
<g id="edge2" class="edge"><title>if_8aef30&#45;&gt;constant_2dd6650</title>
<path fill="none" stroke="black" stroke-dasharray="1,5" d="M264.603,-1329.69C263.16,-1343.15 262.524,-1362.86 268,-1379 269.719,-1384.07 272.472,-1389 275.555,-1393.5"/>
<polygon fill="black" stroke="black" points="272.841,-1395.71 281.709,-1401.51 278.392,-1391.44 272.841,-1395.71"/>
<text text-anchor="middle" x="276" y="-1360.3" font-family="Times New Roman,serif" font-size="14.00">[2]</text>
</g>
<!-- operator_8c4550 -->
<g id="node4" class="node"><title>operator_8c4550</title>
<polygon fill="none" stroke="black" points="358,-1229 331,-1211 358,-1193 385,-1211 358,-1229"/>
<text text-anchor="middle" x="358" y="-1207.3" font-family="Times New Roman,serif" font-size="14.00">&#45;</text>
</g>
<!-- if_8aef30&#45;&gt;operator_8c4550 -->
<g id="edge4" class="edge"><title>if_8aef30&#45;&gt;operator_8c4550</title>
<path fill="none" stroke="black" d="M277.086,-1300.92C292.61,-1283.86 322.528,-1250.98 341.313,-1230.34"/>
<polygon fill="black" stroke="black" points="344.003,-1232.58 348.145,-1222.83 338.826,-1227.87 344.003,-1232.58"/>
<text text-anchor="middle" x="334" y="-1265.8" font-family="Times New Roman,serif" font-size="14.00">[4]</text>
<text text-anchor="middle" x="334" y="-1250.8" font-family="Times New Roman,serif" font-size="14.00">4</text>
</g>
<!-- operator_8c45b0 -->
<g id="node26" class="node"><title>operator_8c45b0</title>
<polygon fill="none" stroke="black" points="175,-1229 148,-1211 175,-1193 202,-1211 175,-1229"/>
<text text-anchor="middle" x="175" y="-1207.3" font-family="Times New Roman,serif" font-size="14.00">&#45;</text>
</g>
<!-- if_8aef30&#45;&gt;operator_8c45b0 -->
<g id="edge37" class="edge"><title>if_8aef30&#45;&gt;operator_8c45b0</title>
<path fill="none" stroke="black" d="M252.195,-1303.44C241.864,-1297.01 228.162,-1287.53 218,-1277 205.526,-1264.07 194.425,-1247.07 186.627,-1233.7"/>
<polygon fill="black" stroke="black" points="189.521,-1231.7 181.561,-1224.71 183.424,-1235.14 189.521,-1231.7"/>
<text text-anchor="middle" x="229.5" y="-1265.8" font-family="Times New Roman,serif" font-size="14.00">[37]</text>
<text text-anchor="middle" x="229.5" y="-1250.8" font-family="Times New Roman,serif" font-size="14.00">4</text>
</g>
<!-- constant_2dd6650&#45;&gt;if_8aef30 -->
<g id="edge3" class="edge"><title>constant_2dd6650&#45;&gt;if_8aef30</title>
<path fill="none" stroke="black" d="M292.771,-1396.85C291.484,-1383.56 288.93,-1364.8 284,-1349 282.665,-1344.72 280.879,-1340.31 278.966,-1336.12"/>
<polygon fill="black" stroke="black" points="281.989,-1334.33 274.425,-1326.91 275.711,-1337.43 281.989,-1334.33"/>
<text text-anchor="middle" x="299" y="-1367.8" font-family="Times New Roman,serif" font-size="14.00">[3]</text>
<text text-anchor="middle" x="299" y="-1352.8" font-family="Times New Roman,serif" font-size="14.00">2</text>
</g>
<!-- constant_2dd6690 -->
<g id="node5" class="node"><title>constant_2dd6690</title>
<ellipse fill="none" stroke="black" cx="374" cy="-1313" rx="18" ry="18"/>
<text text-anchor="middle" x="374" y="-1309.3" font-family="Times New Roman,serif" font-size="14.00">1</text>
</g>
<!-- operator_8c4550&#45;&gt;constant_2dd6690 -->
<g id="edge5" class="edge"><title>operator_8c4550&#45;&gt;constant_2dd6690</title>
<path fill="none" stroke="black" stroke-dasharray="1,5" d="M355.279,-1227.21C353.425,-1240.53 351.962,-1260.32 356,-1277 356.905,-1280.74 358.283,-1284.53 359.882,-1288.16"/>
<polygon fill="black" stroke="black" points="356.845,-1289.91 364.458,-1297.28 363.102,-1286.78 356.845,-1289.91"/>
<text text-anchor="middle" x="364" y="-1258.3" font-family="Times New Roman,serif" font-size="14.00">[5]</text>
</g>
<!-- input_2dd6870 -->
<g id="node6" class="node"><title>input_2dd6870</title>
<polygon fill="none" stroke="black" points="404,-1106 368,-1106 368,-1070 404,-1070 404,-1106"/>
<text text-anchor="middle" x="386" y="-1084.3" font-family="Times New Roman,serif" font-size="14.00">I</text>
</g>
<!-- operator_8c4550&#45;&gt;input_2dd6870 -->
<g id="edge7" class="edge"><title>operator_8c4550&#45;&gt;input_2dd6870</title>
<path fill="none" stroke="black" d="M361.433,-1195.16C365.962,-1175.59 374.017,-1140.78 379.665,-1116.37"/>
<polygon fill="black" stroke="black" points="383.151,-1116.84 381.996,-1106.3 376.331,-1115.26 383.151,-1116.84"/>
<text text-anchor="middle" x="381" y="-1163.8" font-family="Times New Roman,serif" font-size="14.00">[7]</text>
<text text-anchor="middle" x="381" y="-1148.8" font-family="Times New Roman,serif" font-size="14.00">3</text>
</g>
<!-- constant_2dd6690&#45;&gt;operator_8c4550 -->
<g id="edge6" class="edge"><title>constant_2dd6690&#45;&gt;operator_8c4550</title>
<path fill="none" stroke="black" d="M375.083,-1294.98C375.54,-1281.75 375.343,-1263.03 372,-1247 371.138,-1242.87 369.821,-1238.59 368.333,-1234.51"/>
<polygon fill="black" stroke="black" points="371.455,-1232.9 364.444,-1224.96 364.972,-1235.54 371.455,-1232.9"/>
<text text-anchor="middle" x="384" y="-1265.8" font-family="Times New Roman,serif" font-size="14.00">[6]</text>
<text text-anchor="middle" x="384" y="-1250.8" font-family="Times New Roman,serif" font-size="14.00">1</text>
</g>
<!-- if_2dd6890 -->
<g id="node7" class="node"><title>if_2dd6890</title>
<polygon fill="none" stroke="black" points="349,-1004 318.835,-986 349,-968 379.165,-986 349,-1004"/>
<text text-anchor="middle" x="349" y="-982.3" font-family="Times New Roman,serif" font-size="14.00">&lt;=</text>
</g>
<!-- input_2dd6870&#45;&gt;if_2dd6890 -->
<g id="edge8" class="edge"><title>input_2dd6870&#45;&gt;if_2dd6890</title>
<path fill="none" stroke="black" d="M382.368,-1069.82C379.287,-1056.51 374.357,-1037.74 368,-1022 366.204,-1017.55 363.986,-1012.94 361.707,-1008.59"/>
<polygon fill="black" stroke="black" points="364.655,-1006.69 356.759,-999.625 358.526,-1010.07 364.655,-1006.69"/>
<text text-anchor="middle" x="386" y="-1040.8" font-family="Times New Roman,serif" font-size="14.00">[8]</text>
<text text-anchor="middle" x="386" y="-1025.8" font-family="Times New Roman,serif" font-size="14.00">3</text>
</g>
<!-- constant_2dd68b0 -->
<g id="node8" class="node"><title>constant_2dd68b0</title>
<ellipse fill="none" stroke="black" cx="324" cy="-1088" rx="18" ry="18"/>
<text text-anchor="middle" x="324" y="-1084.3" font-family="Times New Roman,serif" font-size="14.00">2</text>
</g>
<!-- if_2dd6890&#45;&gt;constant_2dd68b0 -->
<g id="edge9" class="edge"><title>if_2dd6890&#45;&gt;constant_2dd68b0</title>
<path fill="none" stroke="black" stroke-dasharray="1,5" d="M334.255,-995.685C325.42,-1001.8 314.968,-1010.87 310,-1022 304.284,-1034.81 307.149,-1050.1 311.736,-1062.64"/>
<polygon fill="black" stroke="black" points="308.564,-1064.12 315.654,-1072 315.021,-1061.42 308.564,-1064.12"/>
<text text-anchor="middle" x="318" y="-1033.3" font-family="Times New Roman,serif" font-size="14.00">[9]</text>
</g>
<!-- operator_2dd6910 -->
<g id="node9" class="node"><title>operator_2dd6910</title>
<polygon fill="none" stroke="black" points="505,-902 478,-884 505,-866 532,-884 505,-902"/>
<text text-anchor="middle" x="505" y="-880.3" font-family="Times New Roman,serif" font-size="14.00">&#45;</text>
</g>
<!-- if_2dd6890&#45;&gt;operator_2dd6910 -->
<g id="edge11" class="edge"><title>if_2dd6890&#45;&gt;operator_2dd6910</title>
<path fill="none" stroke="black" d="M362.844,-976.126C389.992,-958.723 450.407,-919.996 483.053,-899.068"/>
<polygon fill="black" stroke="black" points="485.321,-901.772 491.851,-893.429 481.543,-895.879 485.321,-901.772"/>
<text text-anchor="middle" x="462.5" y="-938.8" font-family="Times New Roman,serif" font-size="14.00">[11]</text>
<text text-anchor="middle" x="462.5" y="-923.8" font-family="Times New Roman,serif" font-size="14.00">3</text>
</g>
<!-- operator_2dd69d0 -->
<g id="node17" class="node"><title>operator_2dd69d0</title>
<polygon fill="none" stroke="black" points="338,-902 311,-884 338,-866 365,-884 338,-902"/>
<text text-anchor="middle" x="338" y="-880.3" font-family="Times New Roman,serif" font-size="14.00">&#45;</text>
</g>
<!-- if_2dd6890&#45;&gt;operator_2dd69d0 -->
<g id="edge23" class="edge"><title>if_2dd6890&#45;&gt;operator_2dd69d0</title>
<path fill="none" stroke="black" d="M346.062,-969.712C344.97,-963.601 343.804,-956.485 343,-950 341.444,-937.445 340.294,-923.461 339.491,-911.69"/>
<polygon fill="black" stroke="black" points="342.978,-911.364 338.851,-901.606 335.992,-911.808 342.978,-911.364"/>
<text text-anchor="middle" x="354.5" y="-938.8" font-family="Times New Roman,serif" font-size="14.00">[23]</text>
<text text-anchor="middle" x="354.5" y="-923.8" font-family="Times New Roman,serif" font-size="14.00">3</text>
</g>
<!-- constant_2dd68b0&#45;&gt;if_2dd6890 -->
<g id="edge10" class="edge"><title>constant_2dd68b0&#45;&gt;if_2dd6890</title>
<path fill="none" stroke="black" d="M328.241,-1070.04C332.224,-1054.11 338.231,-1030.08 342.76,-1011.96"/>
<polygon fill="black" stroke="black" points="346.2,-1012.63 345.23,-1002.08 339.409,-1010.93 346.2,-1012.63"/>
<text text-anchor="middle" x="352.5" y="-1040.8" font-family="Times New Roman,serif" font-size="14.00">[10]</text>
<text text-anchor="middle" x="352.5" y="-1025.8" font-family="Times New Roman,serif" font-size="14.00">2</text>
</g>
<!-- constant_2dd6950 -->
<g id="node10" class="node"><title>constant_2dd6950</title>
<ellipse fill="none" stroke="black" cx="521" cy="-986" rx="18" ry="18"/>
<text text-anchor="middle" x="521" y="-982.3" font-family="Times New Roman,serif" font-size="14.00">1</text>
</g>
<!-- operator_2dd6910&#45;&gt;constant_2dd6950 -->
<g id="edge12" class="edge"><title>operator_2dd6910&#45;&gt;constant_2dd6950</title>
<path fill="none" stroke="black" stroke-dasharray="1,5" d="M512.579,-897.128C516.205,-903.643 520.153,-911.968 522,-920 524.809,-932.21 524.993,-946.054 524.301,-957.819"/>
<polygon fill="black" stroke="black" points="520.801,-957.678 523.47,-967.932 527.778,-958.252 520.801,-957.678"/>
<text text-anchor="middle" x="535.5" y="-931.3" font-family="Times New Roman,serif" font-size="14.00">[12]</text>
</g>
<!-- input_2dd6c30 -->
<g id="node11" class="node"><title>input_2dd6c30</title>
<polygon fill="none" stroke="black" points="546,-779 510,-779 510,-743 546,-743 546,-779"/>
<text text-anchor="middle" x="528" y="-757.3" font-family="Times New Roman,serif" font-size="14.00">I</text>
</g>
<!-- operator_2dd6910&#45;&gt;input_2dd6c30 -->
<g id="edge14" class="edge"><title>operator_2dd6910&#45;&gt;input_2dd6c30</title>
<path fill="none" stroke="black" d="M507.913,-867.675C511.662,-847.955 518.238,-813.356 522.842,-789.136"/>
<polygon fill="black" stroke="black" points="526.311,-789.625 524.741,-779.148 519.435,-788.318 526.311,-789.625"/>
<text text-anchor="middle" x="528.5" y="-836.8" font-family="Times New Roman,serif" font-size="14.00">[14]</text>
<text text-anchor="middle" x="528.5" y="-821.8" font-family="Times New Roman,serif" font-size="14.00">2</text>
</g>
<!-- constant_2dd6950&#45;&gt;operator_2dd6910 -->
<g id="edge13" class="edge"><title>constant_2dd6950&#45;&gt;operator_2dd6910</title>
<path fill="none" stroke="black" d="M508.651,-972.526C503.354,-966.304 497.758,-958.336 495,-950 490.546,-936.535 492.769,-920.833 496.238,-908.235"/>
<polygon fill="black" stroke="black" points="499.638,-909.091 499.325,-898.501 492.966,-906.975 499.638,-909.091"/>
<text text-anchor="middle" x="506.5" y="-938.8" font-family="Times New Roman,serif" font-size="14.00">[13]</text>
<text text-anchor="middle" x="506.5" y="-923.8" font-family="Times New Roman,serif" font-size="14.00">1</text>
</g>
<!-- if_2dd6c50 -->
<g id="node12" class="node"><title>if_2dd6c50</title>
<polygon fill="none" stroke="black" points="475,-671 444.835,-653 475,-635 505.165,-653 475,-671"/>
<text text-anchor="middle" x="475" y="-649.3" font-family="Times New Roman,serif" font-size="14.00">&lt;=</text>
</g>
<!-- input_2dd6c30&#45;&gt;if_2dd6c50 -->
<g id="edge15" class="edge"><title>input_2dd6c30&#45;&gt;if_2dd6c50</title>
<path fill="none" stroke="black" d="M525.144,-742.942C521.778,-726.206 515.053,-700.44 503,-681 500.781,-677.422 497.983,-673.985 495.018,-670.833"/>
<polygon fill="black" stroke="black" points="497.184,-668.061 487.543,-663.667 492.339,-673.114 497.184,-668.061"/>
<text text-anchor="middle" x="531.5" y="-710.8" font-family="Times New Roman,serif" font-size="14.00">[15]</text>
<text text-anchor="middle" x="531.5" y="-695.8" font-family="Times New Roman,serif" font-size="14.00">2</text>
</g>
<!-- constant_2dd6c90 -->
<g id="node13" class="node"><title>constant_2dd6c90</title>
<ellipse fill="none" stroke="black" cx="455" cy="-761" rx="18" ry="18"/>
<text text-anchor="middle" x="455" y="-757.3" font-family="Times New Roman,serif" font-size="14.00">2</text>
</g>
<!-- if_2dd6c50&#45;&gt;constant_2dd6c90 -->
<g id="edge16" class="edge"><title>if_2dd6c50&#45;&gt;constant_2dd6c90</title>
<path fill="none" stroke="black" stroke-dasharray="1,5" d="M475.383,-670.882C475.342,-685.422 474.392,-706.865 470,-725 469.166,-728.446 468.023,-731.983 466.737,-735.424"/>
<polygon fill="black" stroke="black" points="463.486,-734.126 462.873,-744.703 469.948,-736.817 463.486,-734.126"/>
<text text-anchor="middle" x="487.5" y="-703.3" font-family="Times New Roman,serif" font-size="14.00">[16]</text>
</g>
<!-- constant_2dd6cd0 -->
<g id="node14" class="node"><title>constant_2dd6cd0</title>
<ellipse fill="none" stroke="black" cx="453" cy="-551" rx="18" ry="18"/>
<text text-anchor="middle" x="453" y="-547.3" font-family="Times New Roman,serif" font-size="14.00">1</text>
</g>
<!-- if_2dd6c50&#45;&gt;constant_2dd6cd0 -->
<g id="edge18" class="edge"><title>if_2dd6c50&#45;&gt;constant_2dd6cd0</title>
<path fill="none" stroke="black" d="M471.659,-636.812C468.267,-621.394 462.946,-597.208 458.853,-578.603"/>
<polygon fill="black" stroke="black" points="462.234,-577.682 456.667,-568.667 455.397,-579.186 462.234,-577.682"/>
<text text-anchor="middle" x="479.5" y="-605.8" font-family="Times New Roman,serif" font-size="14.00">[18]</text>
<text text-anchor="middle" x="479.5" y="-590.8" font-family="Times New Roman,serif" font-size="14.00">2</text>
</g>
<!-- constant_2dd6c90&#45;&gt;if_2dd6c50 -->
<g id="edge17" class="edge"><title>constant_2dd6c90&#45;&gt;if_2dd6c50</title>
<path fill="none" stroke="black" d="M447.627,-744.416C440.942,-727.927 433.472,-701.507 443,-681 445.146,-676.381 448.514,-672.269 452.275,-668.731"/>
<polygon fill="black" stroke="black" points="454.677,-671.29 460.28,-662.298 450.292,-665.834 454.677,-671.29"/>
<text text-anchor="middle" x="454.5" y="-710.8" font-family="Times New Roman,serif" font-size="14.00">[17]</text>
<text text-anchor="middle" x="454.5" y="-695.8" font-family="Times New Roman,serif" font-size="14.00">2</text>
</g>
<!-- output_2dd6d10 -->
<g id="node15" class="node"><title>output_2dd6d10</title>
<polygon fill="none" stroke="black" points="466,-467 430,-467 430,-431 466,-431 466,-467"/>
<text text-anchor="middle" x="448" y="-445.3" font-family="Times New Roman,serif" font-size="14.00">O</text>
</g>
<!-- constant_2dd6cd0&#45;&gt;output_2dd6d10 -->
<g id="edge19" class="edge"><title>constant_2dd6cd0&#45;&gt;output_2dd6d10</title>
<path fill="none" stroke="black" d="M452.129,-532.581C451.369,-517.382 450.253,-495.067 449.373,-477.464"/>
<polygon fill="black" stroke="black" points="452.856,-477.032 448.861,-467.219 445.865,-477.381 452.856,-477.032"/>
<text text-anchor="middle" x="463.5" y="-503.8" font-family="Times New Roman,serif" font-size="14.00">[19]</text>
<text text-anchor="middle" x="463.5" y="-488.8" font-family="Times New Roman,serif" font-size="14.00">1</text>
</g>
<!-- operator_2dd6990 -->
<g id="node16" class="node"><title>operator_2dd6990</title>
<polygon fill="none" stroke="black" points="361,-365 334,-347 361,-329 388,-347 361,-365"/>
<text text-anchor="middle" x="361" y="-343.3" font-family="Times New Roman,serif" font-size="14.00">+</text>
</g>
<!-- output_2dd6d10&#45;&gt;operator_2dd6990 -->
<g id="edge20" class="edge"><title>output_2dd6d10&#45;&gt;operator_2dd6990</title>
<path fill="none" stroke="black" d="M434.3,-430.92C423.552,-417.666 408.101,-398.928 394,-383 389.016,-377.37 383.456,-371.371 378.342,-365.959"/>
<polygon fill="black" stroke="black" points="380.721,-363.383 371.287,-358.561 375.655,-368.214 380.721,-363.383"/>
<text text-anchor="middle" x="431.5" y="-401.8" font-family="Times New Roman,serif" font-size="14.00">[20]</text>
<text text-anchor="middle" x="431.5" y="-386.8" font-family="Times New Roman,serif" font-size="14.00">1</text>
</g>
<!-- operator_2dd6990&#45;&gt;operator_2dd69d0 -->
<g id="edge21" class="edge"><title>operator_2dd6990&#45;&gt;operator_2dd69d0</title>
<path fill="none" stroke="black" stroke-dasharray="1,5" d="M368.517,-360.212C372.218,-366.75 376.427,-375.071 379,-383 388.023,-410.801 389,-418.771 389,-448 389,-762 389,-762 389,-762 389,-801.683 382.781,-812.524 365,-848 362.136,-853.714 358.278,-859.414 354.376,-864.505"/>
<polygon fill="black" stroke="black" points="351.549,-862.433 347.935,-872.392 356.971,-866.861 351.549,-862.433"/>
<text text-anchor="middle" x="400.5" y="-598.3" font-family="Times New Roman,serif" font-size="14.00">[21]</text>
</g>
<!-- output_2dd68f0 -->
<g id="node24" class="node"><title>output_2dd68f0</title>
<polygon fill="none" stroke="black" points="282,-263 246,-263 246,-227 282,-227 282,-263"/>
<text text-anchor="middle" x="264" y="-241.3" font-family="Times New Roman,serif" font-size="14.00">O</text>
</g>
<!-- operator_2dd6990&#45;&gt;output_2dd68f0 -->
<g id="edge33" class="edge"><title>operator_2dd6990&#45;&gt;output_2dd68f0</title>
<path fill="none" stroke="black" d="M350.985,-335.675C336.155,-320.386 307.926,-291.285 287.645,-270.376"/>
<polygon fill="black" stroke="black" points="290.046,-267.825 280.572,-263.084 285.022,-272.699 290.046,-267.825"/>
<text text-anchor="middle" x="338.5" y="-299.8" font-family="Times New Roman,serif" font-size="14.00">[33]</text>
<text text-anchor="middle" x="338.5" y="-284.8" font-family="Times New Roman,serif" font-size="14.00">2</text>
</g>
<!-- operator_2dd69d0&#45;&gt;if_2dd6890 -->
<g id="edge22" class="edge"><title>operator_2dd69d0&#45;&gt;if_2dd6890</title>
<path fill="none" stroke="black" stroke-dasharray="1,5" d="M350.155,-894.263C357.427,-900.608 366.007,-909.715 370,-920 374.826,-932.429 373.559,-937.15 370,-950 368.607,-955.028 366.279,-960.059 363.668,-964.675"/>
<polygon fill="black" stroke="black" points="360.514,-963.113 358.121,-973.434 366.428,-966.858 360.514,-963.113"/>
<text text-anchor="middle" x="385.5" y="-931.3" font-family="Times New Roman,serif" font-size="14.00">[22]</text>
</g>
<!-- constant_2dd6930 -->
<g id="node18" class="node"><title>constant_2dd6930</title>
<ellipse fill="none" stroke="black" cx="270" cy="-986" rx="18" ry="18"/>
<text text-anchor="middle" x="270" y="-982.3" font-family="Times New Roman,serif" font-size="14.00">2</text>
</g>
<!-- operator_2dd69d0&#45;&gt;constant_2dd6930 -->
<g id="edge24" class="edge"><title>operator_2dd69d0&#45;&gt;constant_2dd6930</title>
<path fill="none" stroke="black" stroke-dasharray="1,5" d="M329.762,-896.975C325.123,-903.729 319.227,-912.328 314,-920 304.492,-933.956 293.879,-949.631 285.458,-962.092"/>
<polygon fill="black" stroke="black" points="282.458,-960.28 279.762,-970.526 288.259,-964.198 282.458,-960.28"/>
<text text-anchor="middle" x="325.5" y="-931.3" font-family="Times New Roman,serif" font-size="14.00">[24]</text>
</g>
<!-- input_2de1170 -->
<g id="node19" class="node"><title>input_2de1170</title>
<polygon fill="none" stroke="black" points="353,-779 317,-779 317,-743 353,-743 353,-779"/>
<text text-anchor="middle" x="335" y="-757.3" font-family="Times New Roman,serif" font-size="14.00">I</text>
</g>
<!-- operator_2dd69d0&#45;&gt;input_2de1170 -->
<g id="edge26" class="edge"><title>operator_2dd69d0&#45;&gt;input_2de1170</title>
<path fill="none" stroke="black" d="M337.583,-866.175C337.089,-846.241 336.259,-812.761 335.673,-789.144"/>
<polygon fill="black" stroke="black" points="339.17,-788.982 335.423,-779.072 332.172,-789.155 339.17,-788.982"/>
<text text-anchor="middle" x="349.5" y="-836.8" font-family="Times New Roman,serif" font-size="14.00">[26]</text>
<text text-anchor="middle" x="349.5" y="-821.8" font-family="Times New Roman,serif" font-size="14.00">1</text>
</g>
<!-- constant_2dd6930&#45;&gt;operator_2dd69d0 -->
<g id="edge25" class="edge"><title>constant_2dd6930&#45;&gt;operator_2dd69d0</title>
<path fill="none" stroke="black" d="M264.811,-968.761C261.375,-954.776 258.978,-934.598 268,-920 276.822,-905.726 293.423,-897.078 308.245,-891.951"/>
<polygon fill="black" stroke="black" points="309.564,-895.208 318.104,-888.938 307.518,-888.513 309.564,-895.208"/>
<text text-anchor="middle" x="279.5" y="-938.8" font-family="Times New Roman,serif" font-size="14.00">[25]</text>
<text text-anchor="middle" x="279.5" y="-923.8" font-family="Times New Roman,serif" font-size="14.00">2</text>
</g>
<!-- if_2de1190 -->
<g id="node20" class="node"><title>if_2de1190</title>
<polygon fill="none" stroke="black" points="305,-671 274.835,-653 305,-635 335.165,-653 305,-671"/>
<text text-anchor="middle" x="305" y="-649.3" font-family="Times New Roman,serif" font-size="14.00">&lt;=</text>
</g>
<!-- input_2de1170&#45;&gt;if_2de1190 -->
<g id="edge27" class="edge"><title>input_2de1170&#45;&gt;if_2de1190</title>
<path fill="none" stroke="black" d="M326.202,-742.873C323.595,-737.284 320.926,-730.978 319,-725 317.592,-720.631 313.23,-698.115 309.745,-679.593"/>
<polygon fill="black" stroke="black" points="313.152,-678.772 307.873,-669.586 306.271,-680.059 313.152,-678.772"/>
<text text-anchor="middle" x="330.5" y="-710.8" font-family="Times New Roman,serif" font-size="14.00">[27]</text>
<text text-anchor="middle" x="330.5" y="-695.8" font-family="Times New Roman,serif" font-size="14.00">1</text>
</g>
<!-- constant_2de11d0 -->
<g id="node21" class="node"><title>constant_2de11d0</title>
<ellipse fill="none" stroke="black" cx="260" cy="-761" rx="18" ry="18"/>
<text text-anchor="middle" x="260" y="-757.3" font-family="Times New Roman,serif" font-size="14.00">2</text>
</g>
<!-- if_2de1190&#45;&gt;constant_2de11d0 -->
<g id="edge28" class="edge"><title>if_2de1190&#45;&gt;constant_2de11d0</title>
<path fill="none" stroke="black" stroke-dasharray="1,5" d="M294.802,-665.189C290.994,-669.821 286.896,-675.411 284,-681 275.482,-697.443 269.449,-717.408 265.562,-733.154"/>
<polygon fill="black" stroke="black" points="262.062,-732.753 263.21,-743.285 268.881,-734.336 262.062,-732.753"/>
<text text-anchor="middle" x="295.5" y="-703.3" font-family="Times New Roman,serif" font-size="14.00">[28]</text>
</g>
<!-- constant_2de1210 -->
<g id="node22" class="node"><title>constant_2de1210</title>
<ellipse fill="none" stroke="black" cx="321" cy="-551" rx="18" ry="18"/>
<text text-anchor="middle" x="321" y="-547.3" font-family="Times New Roman,serif" font-size="14.00">1</text>
</g>
<!-- if_2de1190&#45;&gt;constant_2de1210 -->
<g id="edge30" class="edge"><title>if_2de1190&#45;&gt;constant_2de1210</title>
<path fill="none" stroke="black" d="M299.235,-638.246C294.472,-624.873 289.335,-604.127 295,-587 296.68,-581.92 299.415,-576.977 302.494,-572.482"/>
<polygon fill="black" stroke="black" points="305.33,-574.535 308.651,-564.474 299.781,-570.268 305.33,-574.535"/>
<text text-anchor="middle" x="306.5" y="-605.8" font-family="Times New Roman,serif" font-size="14.00">[30]</text>
<text text-anchor="middle" x="306.5" y="-590.8" font-family="Times New Roman,serif" font-size="14.00">1</text>
</g>
<!-- constant_2de11d0&#45;&gt;if_2de1190 -->
<g id="edge29" class="edge"><title>constant_2de11d0&#45;&gt;if_2de1190</title>
<path fill="none" stroke="black" d="M250.342,-745.712C240.322,-728.931 227.82,-700.865 241,-681 248.032,-670.402 260.132,-663.953 271.932,-660.034"/>
<polygon fill="black" stroke="black" points="272.975,-663.377 281.655,-657.302 271.081,-656.638 272.975,-663.377"/>
<text text-anchor="middle" x="252.5" y="-710.8" font-family="Times New Roman,serif" font-size="14.00">[29]</text>
<text text-anchor="middle" x="252.5" y="-695.8" font-family="Times New Roman,serif" font-size="14.00">2</text>
</g>
<!-- output_2de1250 -->
<g id="node23" class="node"><title>output_2de1250</title>
<polygon fill="none" stroke="black" points="352,-467 316,-467 316,-431 352,-431 352,-467"/>
<text text-anchor="middle" x="334" y="-445.3" font-family="Times New Roman,serif" font-size="14.00">O</text>
</g>
<!-- constant_2de1210&#45;&gt;output_2de1250 -->
<g id="edge31" class="edge"><title>constant_2de1210&#45;&gt;output_2de1250</title>
<path fill="none" stroke="black" d="M316.433,-533.465C313.487,-520.182 310.9,-501.147 315,-485 315.758,-482.014 316.828,-479.007 318.079,-476.076"/>
<polygon fill="black" stroke="black" points="321.224,-477.612 322.525,-467.098 314.951,-474.505 321.224,-477.612"/>
<text text-anchor="middle" x="326.5" y="-503.8" font-family="Times New Roman,serif" font-size="14.00">[31]</text>
<text text-anchor="middle" x="326.5" y="-488.8" font-family="Times New Roman,serif" font-size="14.00">1</text>
</g>
<!-- output_2de1250&#45;&gt;operator_2dd6990 -->
<g id="edge32" class="edge"><title>output_2de1250&#45;&gt;operator_2dd6990</title>
<path fill="none" stroke="black" d="M338.703,-430.581C343.048,-414.49 349.546,-390.424 354.407,-372.417"/>
<polygon fill="black" stroke="black" points="357.825,-373.188 357.052,-362.621 351.067,-371.363 357.825,-373.188"/>
<text text-anchor="middle" x="363.5" y="-401.8" font-family="Times New Roman,serif" font-size="14.00">[32]</text>
<text text-anchor="middle" x="363.5" y="-386.8" font-family="Times New Roman,serif" font-size="14.00">1</text>
</g>
<!-- operator_8c45d0 -->
<g id="node25" class="node"><title>operator_8c45d0</title>
<polygon fill="none" stroke="black" points="175,-161 148,-143 175,-125 202,-143 175,-161"/>
<text text-anchor="middle" x="175" y="-139.3" font-family="Times New Roman,serif" font-size="14.00">+</text>
</g>
<!-- output_2dd68f0&#45;&gt;operator_8c45d0 -->
<g id="edge34" class="edge"><title>output_2dd68f0&#45;&gt;operator_8c45d0</title>
<path fill="none" stroke="black" d="M248.497,-226.581C232.518,-208.627 207.702,-180.744 191.4,-162.427"/>
<polygon fill="black" stroke="black" points="193.835,-159.898 184.572,-154.755 188.606,-164.552 193.835,-159.898"/>
<text text-anchor="middle" x="244.5" y="-197.8" font-family="Times New Roman,serif" font-size="14.00">[34]</text>
<text text-anchor="middle" x="244.5" y="-182.8" font-family="Times New Roman,serif" font-size="14.00">2</text>
</g>
<!-- operator_8c45d0&#45;&gt;operator_8c45b0 -->
<g id="edge35" class="edge"><title>operator_8c45d0&#45;&gt;operator_8c45b0</title>
<path fill="none" stroke="black" stroke-dasharray="1,5" d="M175,-161.343C175,-181.286 175,-215.007 175,-244 175,-1089 175,-1089 175,-1089 175,-1121.21 175,-1158.23 175,-1182.76"/>
<polygon fill="black" stroke="black" points="171.5,-1182.77 175,-1192.77 178.5,-1182.77 171.5,-1182.77"/>
<text text-anchor="middle" x="186.5" y="-649.3" font-family="Times New Roman,serif" font-size="14.00">[35]</text>
</g>
<!-- output_2da4ff0 -->
<g id="node33" class="node"><title>output_2da4ff0</title>
<polygon fill="none" stroke="black" points="193,-59 157,-59 157,-23 193,-23 193,-59"/>
<text text-anchor="middle" x="175" y="-37.3" font-family="Times New Roman,serif" font-size="14.00">O</text>
</g>
<!-- operator_8c45d0&#45;&gt;output_2da4ff0 -->
<g id="edge47" class="edge"><title>operator_8c45d0&#45;&gt;output_2da4ff0</title>
<path fill="none" stroke="black" d="M175,-124.581C175,-109.382 175,-87.0669 175,-69.4644"/>
<polygon fill="black" stroke="black" points="178.5,-69.219 175,-59.2191 171.5,-69.2191 178.5,-69.219"/>
<text text-anchor="middle" x="186.5" y="-95.8" font-family="Times New Roman,serif" font-size="14.00">[47]</text>
<text text-anchor="middle" x="186.5" y="-80.8" font-family="Times New Roman,serif" font-size="14.00">3</text>
</g>
<!-- operator_8c45b0&#45;&gt;if_8aef30 -->
<g id="edge36" class="edge"><title>operator_8c45b0&#45;&gt;if_8aef30</title>
<path fill="none" stroke="black" stroke-dasharray="1,5" d="M193.554,-1216.93C209.299,-1222.01 231.432,-1231.43 245,-1247 254.572,-1257.99 260.02,-1273.31 263.099,-1286.32"/>
<polygon fill="black" stroke="black" points="259.671,-1287.03 265.094,-1296.13 266.531,-1285.63 259.671,-1287.03"/>
<text text-anchor="middle" x="272.5" y="-1258.3" font-family="Times New Roman,serif" font-size="14.00">[36]</text>
</g>
<!-- constant_2dd6670 -->
<g id="node27" class="node"><title>constant_2dd6670</title>
<ellipse fill="none" stroke="black" cx="152" cy="-1313" rx="18" ry="18"/>
<text text-anchor="middle" x="152" y="-1309.3" font-family="Times New Roman,serif" font-size="14.00">2</text>
</g>
<!-- operator_8c45b0&#45;&gt;constant_2dd6670 -->
<g id="edge38" class="edge"><title>operator_8c45b0&#45;&gt;constant_2dd6670</title>
<path fill="none" stroke="black" stroke-dasharray="1,5" d="M159.85,-1219.13C149.345,-1224.99 136.175,-1234.37 130,-1247 124.142,-1258.98 126.308,-1264.19 130,-1277 131.287,-1281.47 133.33,-1285.91 135.665,-1290.06"/>
<polygon fill="black" stroke="black" points="132.749,-1292 141.061,-1298.57 138.66,-1288.25 132.749,-1292"/>
<text text-anchor="middle" x="141.5" y="-1258.3" font-family="Times New Roman,serif" font-size="14.00">[38]</text>
</g>
<!-- input_2de15b0 -->
<g id="node28" class="node"><title>input_2de15b0</title>
<polygon fill="none" stroke="black" points="146,-1106 110,-1106 110,-1070 146,-1070 146,-1106"/>
<text text-anchor="middle" x="128" y="-1084.3" font-family="Times New Roman,serif" font-size="14.00">I</text>
</g>
<!-- operator_8c45b0&#45;&gt;input_2de15b0 -->
<g id="edge40" class="edge"><title>operator_8c45b0&#45;&gt;input_2de15b0</title>
<path fill="none" stroke="black" d="M162.147,-1201.5C153.791,-1195.23 143.466,-1185.91 138,-1175 128.911,-1156.86 126.627,-1133.94 126.498,-1116.32"/>
<polygon fill="black" stroke="black" points="130.001,-1116.18 126.655,-1106.13 123.002,-1116.08 130.001,-1116.18"/>
<text text-anchor="middle" x="149.5" y="-1163.8" font-family="Times New Roman,serif" font-size="14.00">[40]</text>
<text text-anchor="middle" x="149.5" y="-1148.8" font-family="Times New Roman,serif" font-size="14.00">2</text>
</g>
<!-- constant_2dd6670&#45;&gt;operator_8c45b0 -->
<g id="edge39" class="edge"><title>constant_2dd6670&#45;&gt;operator_8c45b0</title>
<path fill="none" stroke="black" d="M155.902,-1295.04C159.587,-1279.01 165.157,-1254.79 169.332,-1236.64"/>
<polygon fill="black" stroke="black" points="172.774,-1237.29 171.605,-1226.76 165.952,-1235.72 172.774,-1237.29"/>
<text text-anchor="middle" x="178.5" y="-1265.8" font-family="Times New Roman,serif" font-size="14.00">[39]</text>
<text text-anchor="middle" x="178.5" y="-1250.8" font-family="Times New Roman,serif" font-size="14.00">2</text>
</g>
<!-- if_2de15d0 -->
<g id="node29" class="node"><title>if_2de15d0</title>
<polygon fill="none" stroke="black" points="99,-1004 68.8347,-986 99,-968 129.165,-986 99,-1004"/>
<text text-anchor="middle" x="99" y="-982.3" font-family="Times New Roman,serif" font-size="14.00">&lt;=</text>
</g>
<!-- input_2de15b0&#45;&gt;if_2de15d0 -->
<g id="edge41" class="edge"><title>input_2de15b0&#45;&gt;if_2de15d0</title>
<path fill="none" stroke="black" d="M122.949,-1069.58C118.282,-1053.49 111.303,-1029.42 106.081,-1011.42"/>
<polygon fill="black" stroke="black" points="109.387,-1010.25 103.24,-1001.62 102.664,-1012.2 109.387,-1010.25"/>
<text text-anchor="middle" x="129.5" y="-1040.8" font-family="Times New Roman,serif" font-size="14.00">[41]</text>
<text text-anchor="middle" x="129.5" y="-1025.8" font-family="Times New Roman,serif" font-size="14.00">2</text>
</g>
<!-- constant_2de1610 -->
<g id="node30" class="node"><title>constant_2de1610</title>
<ellipse fill="none" stroke="black" cx="54" cy="-1088" rx="18" ry="18"/>
<text text-anchor="middle" x="54" y="-1084.3" font-family="Times New Roman,serif" font-size="14.00">2</text>
</g>
<!-- if_2de15d0&#45;&gt;constant_2de1610 -->
<g id="edge42" class="edge"><title>if_2de15d0&#45;&gt;constant_2de1610</title>
<path fill="none" stroke="black" stroke-dasharray="1,5" d="M92.7404,-1000.62C89.7742,-1007.09 86.19,-1014.94 83,-1022 77.0794,-1035.11 70.547,-1049.74 65.1834,-1061.79"/>
<polygon fill="black" stroke="black" points="61.8552,-1060.66 60.9919,-1071.22 68.2518,-1063.5 61.8552,-1060.66"/>
<text text-anchor="middle" x="94.5" y="-1033.3" font-family="Times New Roman,serif" font-size="14.00">[42]</text>
</g>
<!-- constant_2de1650 -->
<g id="node31" class="node"><title>constant_2de1650</title>
<ellipse fill="none" stroke="black" cx="106" cy="-884" rx="18" ry="18"/>
<text text-anchor="middle" x="106" y="-880.3" font-family="Times New Roman,serif" font-size="14.00">1</text>
</g>
<!-- if_2de15d0&#45;&gt;constant_2de1650 -->
<g id="edge44" class="edge"><title>if_2de15d0&#45;&gt;constant_2de1650</title>
<path fill="none" stroke="black" d="M100.156,-968.487C101.222,-953.255 102.825,-930.351 104.083,-912.383"/>
<polygon fill="black" stroke="black" points="107.588,-912.428 104.795,-902.208 100.606,-911.94 107.588,-912.428"/>
<text text-anchor="middle" x="115.5" y="-938.8" font-family="Times New Roman,serif" font-size="14.00">[44]</text>
<text text-anchor="middle" x="115.5" y="-923.8" font-family="Times New Roman,serif" font-size="14.00">2</text>
</g>
<!-- constant_2de1610&#45;&gt;if_2de15d0 -->
<g id="edge43" class="edge"><title>constant_2de1610&#45;&gt;if_2de15d0</title>
<path fill="none" stroke="black" d="M46.4728,-1071.61C40.8764,-1057.8 35.5389,-1037.41 44,-1022 49.9816,-1011.1 60.9538,-1003.11 71.5336,-997.544"/>
<polygon fill="black" stroke="black" points="73.0509,-1000.7 80.5947,-993.259 70.0582,-994.37 73.0509,-1000.7"/>
<text text-anchor="middle" x="55.5" y="-1040.8" font-family="Times New Roman,serif" font-size="14.00">[43]</text>
<text text-anchor="middle" x="55.5" y="-1025.8" font-family="Times New Roman,serif" font-size="14.00">2</text>
</g>
<!-- output_2de1690 -->
<g id="node32" class="node"><title>output_2de1690</title>
<polygon fill="none" stroke="black" points="139,-725 103,-725 103,-689 139,-689 139,-725"/>
<text text-anchor="middle" x="121" y="-703.3" font-family="Times New Roman,serif" font-size="14.00">O</text>
</g>
<!-- constant_2de1650&#45;&gt;output_2de1690 -->
<g id="edge45" class="edge"><title>constant_2de1650&#45;&gt;output_2de1690</title>
<path fill="none" stroke="black" d="M107.466,-865.902C110.064,-835.582 115.501,-772.156 118.635,-735.588"/>
<polygon fill="black" stroke="black" points="122.162,-735.43 119.528,-725.168 115.187,-734.832 122.162,-735.43"/>
<text text-anchor="middle" x="123.5" y="-836.8" font-family="Times New Roman,serif" font-size="14.00">[45]</text>
<text text-anchor="middle" x="123.5" y="-821.8" font-family="Times New Roman,serif" font-size="14.00">1</text>
</g>
<!-- output_2de1690&#45;&gt;operator_8c45d0 -->
<g id="edge46" class="edge"><title>output_2de1690&#45;&gt;operator_8c45d0</title>
<path fill="none" stroke="black" d="M121.536,-688.871C122.128,-668.432 123,-633.226 123,-603 123,-603 123,-603 123,-244 123,-212.777 143.202,-181.627 158.422,-162.589"/>
<polygon fill="black" stroke="black" points="161.254,-164.657 164.974,-154.737 155.88,-160.172 161.254,-164.657"/>
<text text-anchor="middle" x="134.5" y="-452.8" font-family="Times New Roman,serif" font-size="14.00">[46]</text>
<text text-anchor="middle" x="134.5" y="-437.8" font-family="Times New Roman,serif" font-size="14.00">1</text>
</g>
</g>
</svg>
