<?xml version="1.0" encoding="UTF-8" standalone="no"?>
<!DOCTYPE svg PUBLIC "-//W3C//DTD SVG 1.1//EN"
 "http://www.w3.org/Graphics/SVG/1.1/DTD/svg11.dtd">
<!-- Generated by graphviz version 2.38.0 (20140413.2041)
 -->
<!-- Title: %3 Pages: 1 -->
<svg width="299pt" height="452pt"
 viewBox="0.00 0.00 299.00 452.00" xmlns="http://www.w3.org/2000/svg" xmlns:xlink="http://www.w3.org/1999/xlink">
<g id="graph0" class="graph" transform="scale(1 1) rotate(0) translate(4 448)">
<title>%3</title>
<polygon fill="white" stroke="none" points="-4,4 -4,-448 295,-448 295,4 -4,4"/>
<!-- f0eed0 -->
<g id="node1" class="node"><title>f0eed0</title>
<ellipse fill="none" stroke="black" cx="115" cy="-426" rx="29.795" ry="18"/>
<text text-anchor="middle" x="115" y="-422.3" font-family="Times New Roman,serif" font-size="14.00">Input</text>
</g>
<!-- f0ef10 -->
<g id="node2" class="node"><title>f0ef10</title>
<ellipse fill="none" stroke="black" cx="154" cy="-324" rx="27" ry="18"/>
<text text-anchor="middle" x="154" y="-320.3" font-family="Times New Roman,serif" font-size="14.00">&lt;=</text>
</g>
<!-- f0eed0&#45;&gt;f0ef10 -->
<g id="edge1" class="edge"><title>f0eed0&#45;&gt;f0ef10</title>
<path fill="none" stroke="black" d="M117.161,-407.885C119.277,-394.445 123.199,-375.481 130,-360 131.653,-356.237 133.725,-352.453 135.955,-348.834"/>
<polygon fill="black" stroke="black" points="139.021,-350.546 141.676,-340.289 133.204,-346.652 139.021,-350.546"/>
<text text-anchor="middle" x="138" y="-378.8" font-family="Times New Roman,serif" font-size="14.00">[1]</text>
<text text-anchor="middle" x="138" y="-363.8" font-family="Times New Roman,serif" font-size="14.00">5</text>
</g>
<!-- f255b0 -->
<g id="node3" class="node"><title>f255b0</title>
<ellipse fill="none" stroke="black" cx="191" cy="-426" rx="27" ry="18"/>
<text text-anchor="middle" x="191" y="-422.3" font-family="Times New Roman,serif" font-size="14.00">1</text>
</g>
<!-- f0ef10&#45;&gt;f255b0 -->
<g id="edge2" class="edge"><title>f0ef10&#45;&gt;f255b0</title>
<path fill="none" stroke="black" stroke-dasharray="1,5" d="M150.814,-342.032C149.072,-355.596 148.426,-374.768 155,-390 157.434,-395.64 161.256,-400.827 165.517,-405.383"/>
<polygon fill="black" stroke="black" points="163.273,-408.078 172.936,-412.423 168.091,-403.001 163.273,-408.078"/>
<text text-anchor="middle" x="163" y="-371.3" font-family="Times New Roman,serif" font-size="14.00">[2]</text>
</g>
<!-- f0ef30 -->
<g id="node4" class="node"><title>f0ef30</title>
<ellipse fill="none" stroke="black" cx="245" cy="-222" rx="27" ry="18"/>
<text text-anchor="middle" x="245" y="-218.3" font-family="Times New Roman,serif" font-size="14.00">&#45;</text>
</g>
<!-- f0ef10&#45;&gt;f0ef30 -->
<g id="edge4" class="edge"><title>f0ef10&#45;&gt;f0ef30</title>
<path fill="none" stroke="black" d="M167.427,-308.245C182.549,-291.627 207.287,-264.443 224.755,-245.247"/>
<polygon fill="black" stroke="black" points="227.376,-247.568 231.518,-237.816 222.198,-242.856 227.376,-247.568"/>
<text text-anchor="middle" x="221" y="-276.8" font-family="Times New Roman,serif" font-size="14.00">[4]</text>
<text text-anchor="middle" x="221" y="-261.8" font-family="Times New Roman,serif" font-size="14.00">5</text>
</g>
<!-- 2e8a050 -->
<g id="node7" class="node"><title>2e8a050</title>
<ellipse fill="none" stroke="black" cx="72" cy="-222" rx="27" ry="18"/>
<text text-anchor="middle" x="72" y="-218.3" font-family="Times New Roman,serif" font-size="14.00">&#45;</text>
</g>
<!-- f0ef10&#45;&gt;2e8a050 -->
<g id="edge10" class="edge"><title>f0ef10&#45;&gt;2e8a050</title>
<path fill="none" stroke="black" d="M144.695,-307.054C134.973,-290.622 120.16,-266.272 113,-258 108.309,-252.58 102.754,-247.27 97.2734,-242.49"/>
<polygon fill="black" stroke="black" points="99.3224,-239.641 89.4048,-235.914 94.8334,-245.012 99.3224,-239.641"/>
<text text-anchor="middle" x="144.5" y="-276.8" font-family="Times New Roman,serif" font-size="14.00">[10]</text>
<text text-anchor="middle" x="144.5" y="-261.8" font-family="Times New Roman,serif" font-size="14.00">5</text>
</g>
<!-- f255b0&#45;&gt;f0ef10 -->
<g id="edge3" class="edge"><title>f255b0&#45;&gt;f0ef10</title>
<path fill="none" stroke="black" d="M186.596,-408.194C182.936,-394.924 177.319,-376.038 171,-360 169.762,-356.858 168.359,-353.607 166.903,-350.412"/>
<polygon fill="black" stroke="black" points="169.949,-348.669 162.486,-341.149 163.631,-351.682 169.949,-348.669"/>
<text text-anchor="middle" x="190" y="-378.8" font-family="Times New Roman,serif" font-size="14.00">[3]</text>
<text text-anchor="middle" x="190" y="-363.8" font-family="Times New Roman,serif" font-size="14.00">1</text>
</g>
<!-- f25730 -->
<g id="node5" class="node"><title>f25730</title>
<ellipse fill="none" stroke="black" cx="264" cy="-324" rx="27" ry="18"/>
<text text-anchor="middle" x="264" y="-320.3" font-family="Times New Roman,serif" font-size="14.00">1</text>
</g>
<!-- f0ef30&#45;&gt;f25730 -->
<g id="edge5" class="edge"><title>f0ef30&#45;&gt;f25730</title>
<path fill="none" stroke="black" stroke-dasharray="1,5" d="M254.625,-239.194C257.555,-244.936 260.417,-251.572 262,-258 264.997,-270.17 265.771,-284.009 265.686,-295.78"/>
<polygon fill="black" stroke="black" points="262.184,-295.809 265.406,-305.902 269.181,-296.003 262.184,-295.809"/>
<text text-anchor="middle" x="273" y="-269.3" font-family="Times New Roman,serif" font-size="14.00">[5]</text>
</g>
<!-- f25530 -->
<g id="node6" class="node"><title>f25530</title>
<ellipse fill="none" stroke="black" cx="94" cy="-120" rx="27" ry="18"/>
<text text-anchor="middle" x="94" y="-116.3" font-family="Times New Roman,serif" font-size="14.00">+</text>
</g>
<!-- f0ef30&#45;&gt;f25530 -->
<g id="edge7" class="edge"><title>f0ef30&#45;&gt;f25530</title>
<path fill="none" stroke="black" d="M226.484,-208.738C200.107,-191.27 151.545,-159.109 121.111,-138.954"/>
<polygon fill="black" stroke="black" points="122.937,-135.966 112.667,-133.362 119.072,-141.802 122.937,-135.966"/>
<text text-anchor="middle" x="200" y="-174.8" font-family="Times New Roman,serif" font-size="14.00">[7]</text>
<text text-anchor="middle" x="200" y="-159.8" font-family="Times New Roman,serif" font-size="14.00">4</text>
</g>
<!-- f25730&#45;&gt;f0ef30 -->
<g id="edge6" class="edge"><title>f25730&#45;&gt;f0ef30</title>
<path fill="none" stroke="black" d="M251.895,-307.878C247.932,-302.02 244.027,-295.034 242,-288 238.503,-275.866 238.632,-261.936 239.887,-250.091"/>
<polygon fill="black" stroke="black" points="243.392,-250.295 241.285,-239.911 236.457,-249.343 243.392,-250.295"/>
<text text-anchor="middle" x="250" y="-276.8" font-family="Times New Roman,serif" font-size="14.00">[6]</text>
<text text-anchor="middle" x="250" y="-261.8" font-family="Times New Roman,serif" font-size="14.00">1</text>
</g>
<!-- f25530&#45;&gt;2e8a050 -->
<g id="edge8" class="edge"><title>f25530&#45;&gt;2e8a050</title>
<path fill="none" stroke="black" stroke-dasharray="1,5" d="M97.0111,-137.946C98.7333,-151.292 99.7227,-170.214 95,-186 93.8375,-189.886 92.0897,-193.74 90.0667,-197.392"/>
<polygon fill="black" stroke="black" points="87.0375,-195.633 84.6481,-205.955 92.9528,-199.376 87.0375,-195.633"/>
<text text-anchor="middle" x="107" y="-167.3" font-family="Times New Roman,serif" font-size="14.00">[8]</text>
</g>
<!-- 2f1a650 -->
<g id="node9" class="node"><title>2f1a650</title>
<ellipse fill="none" stroke="black" cx="94" cy="-18" rx="36.2938" ry="18"/>
<text text-anchor="middle" x="94" y="-14.3" font-family="Times New Roman,serif" font-size="14.00">Output</text>
</g>
<!-- f25530&#45;&gt;2f1a650 -->
<g id="edge14" class="edge"><title>f25530&#45;&gt;2f1a650</title>
<path fill="none" stroke="black" d="M94,-101.581C94,-86.3816 94,-64.0669 94,-46.4644"/>
<polygon fill="black" stroke="black" points="97.5001,-46.219 94,-36.2191 90.5001,-46.2191 97.5001,-46.219"/>
<text text-anchor="middle" x="105.5" y="-72.8" font-family="Times New Roman,serif" font-size="14.00">[14]</text>
<text text-anchor="middle" x="105.5" y="-57.8" font-family="Times New Roman,serif" font-size="14.00">7</text>
</g>
<!-- 2e8a050&#45;&gt;f0ef10 -->
<g id="edge9" class="edge"><title>2e8a050&#45;&gt;f0ef10</title>
<path fill="none" stroke="black" stroke-dasharray="1,5" d="M75.3452,-240.031C78.8147,-254.136 85.4049,-274.055 97,-288 103.96,-296.371 113.467,-303.305 122.722,-308.731"/>
<polygon fill="black" stroke="black" points="121.33,-311.958 131.789,-313.653 124.67,-305.806 121.33,-311.958"/>
<text text-anchor="middle" x="105" y="-269.3" font-family="Times New Roman,serif" font-size="14.00">[9]</text>
</g>
<!-- 2e8a050&#45;&gt;f25530 -->
<g id="edge13" class="edge"><title>2e8a050&#45;&gt;f25530</title>
<path fill="none" stroke="black" d="M67.5477,-203.991C64.846,-190.61 62.816,-171.672 68,-156 69.3907,-151.796 71.5035,-147.685 73.9357,-143.846"/>
<polygon fill="black" stroke="black" points="76.9766,-145.613 80.0013,-135.46 71.3047,-141.511 76.9766,-145.613"/>
<text text-anchor="middle" x="79.5" y="-174.8" font-family="Times New Roman,serif" font-size="14.00">[13]</text>
<text text-anchor="middle" x="79.5" y="-159.8" font-family="Times New Roman,serif" font-size="14.00">3</text>
</g>
<!-- 2f1a390 -->
<g id="node8" class="node"><title>2f1a390</title>
<ellipse fill="none" stroke="black" cx="27" cy="-324" rx="27" ry="18"/>
<text text-anchor="middle" x="27" y="-320.3" font-family="Times New Roman,serif" font-size="14.00">2</text>
</g>
<!-- 2e8a050&#45;&gt;2f1a390 -->
<g id="edge11" class="edge"><title>2e8a050&#45;&gt;2f1a390</title>
<path fill="none" stroke="black" stroke-dasharray="1,5" d="M61.7371,-238.683C58.0933,-244.602 54.1248,-251.482 51,-258 45.1275,-270.249 39.766,-284.339 35.6074,-296.262"/>
<polygon fill="black" stroke="black" points="32.1744,-295.488 32.2799,-306.082 38.8041,-297.734 32.1744,-295.488"/>
<text text-anchor="middle" x="62.5" y="-269.3" font-family="Times New Roman,serif" font-size="14.00">[11]</text>
</g>
<!-- 2f1a390&#45;&gt;2e8a050 -->
<g id="edge12" class="edge"><title>2f1a390&#45;&gt;2e8a050</title>
<path fill="none" stroke="black" d="M17.2436,-307.091C10.1644,-293.318 3.23235,-273.265 12,-258 17.9463,-247.647 28.2665,-240.068 38.6885,-234.664"/>
<polygon fill="black" stroke="black" points="40.1622,-237.839 47.7661,-230.461 37.221,-231.487 40.1622,-237.839"/>
<text text-anchor="middle" x="23.5" y="-276.8" font-family="Times New Roman,serif" font-size="14.00">[12]</text>
<text text-anchor="middle" x="23.5" y="-261.8" font-family="Times New Roman,serif" font-size="14.00">2</text>
</g>
<!-- f255d0 -->
<g id="node10" class="node"><title>f255d0</title>
<ellipse fill="none" stroke="black" cx="175" cy="-120" rx="36.2938" ry="18"/>
<text text-anchor="middle" x="175" y="-116.3" font-family="Times New Roman,serif" font-size="14.00">Output</text>
</g>
<!-- f25550 -->
<g id="node11" class="node"><title>f25550</title>
<ellipse fill="none" stroke="black" cx="173" cy="-222" rx="27" ry="18"/>
<text text-anchor="middle" x="173" y="-218.3" font-family="Times New Roman,serif" font-size="14.00">1</text>
</g>
<!-- f255d0&#45;&gt;f25550 -->
<g id="edge15" class="edge"><title>f255d0&#45;&gt;f25550</title>
<path fill="none" stroke="black" d="M174.656,-138.219C174.29,-156.498 173.715,-185.227 173.348,-203.581"/>
</g>
<!-- f25550&#45;&gt;f0ef10 -->
<g id="edge16" class="edge"><title>f25550&#45;&gt;f0ef10</title>
<path fill="none" stroke="black" d="M169.761,-240.047C166.261,-258.468 160.717,-287.648 157.223,-306.036"/>
</g>
</g>
</svg>
