<?xml version="1.0" encoding="UTF-8" standalone="no"?>
<!DOCTYPE svg PUBLIC "-//W3C//DTD SVG 1.1//EN"
 "http://www.w3.org/Graphics/SVG/1.1/DTD/svg11.dtd">
<!-- Generated by graphviz version 2.38.0 (20140413.2041)
 -->
<!-- Title: %3 Pages: 1 -->
<svg width="404pt" height="1096pt"
 viewBox="0.00 0.00 404.00 1096.00" xmlns="http://www.w3.org/2000/svg" xmlns:xlink="http://www.w3.org/1999/xlink">
<g id="graph0" class="graph" transform="scale(1 1) rotate(0) translate(4 1092)">
<title>%3</title>
<polygon fill="white" stroke="none" points="-4,4 -4,-1092 400,-1092 400,4 -4,4"/>
<g id="clust1" class="cluster"><title>cluster_35453d0</title>
<polygon fill="none" stroke="black" points="8,-8 8,-1080 388,-1080 388,-8 8,-8"/>
</g>
<g id="clust2" class="cluster"><title>cluster_3589c30</title>
<polygon fill="none" stroke="black" points="16,-110 16,-978 380,-978 380,-110 16,-110"/>
</g>
<g id="clust6" class="cluster"><title>cluster_3589cb0</title>
<polygon fill="none" stroke="black" points="24,-314 24,-672 173,-672 173,-314 24,-314"/>
</g>
<g id="clust8" class="cluster"><title>cluster_3589c50</title>
<polygon fill="none" stroke="black" points="230,-314 230,-672 372,-672 372,-314 230,-314"/>
</g>
<!-- input_3589f10 -->
<g id="node1" class="node"><title>input_3589f10</title>
<polygon fill="none" stroke="black" points="289,-1072 253,-1072 253,-1036 289,-1036 289,-1072"/>
<text text-anchor="middle" x="271" y="-1050.3" font-family="Times New Roman,serif" font-size="14.00">I</text>
</g>
<!-- input_3589cf0 -->
<g id="node2" class="node"><title>input_3589cf0</title>
<polygon fill="none" stroke="black" points="289,-970 253,-970 253,-934 289,-934 289,-970"/>
<text text-anchor="middle" x="271" y="-948.3" font-family="Times New Roman,serif" font-size="14.00">I</text>
</g>
<!-- input_3589f10&#45;&gt;input_3589cf0 -->
<g id="edge1" class="edge"><title>input_3589f10&#45;&gt;input_3589cf0</title>
<path fill="none" stroke="black" d="M271,-1035.58C271,-1020.38 271,-998.067 271,-980.464"/>
<polygon fill="black" stroke="black" points="274.5,-980.219 271,-970.219 267.5,-980.219 274.5,-980.219"/>
<text text-anchor="middle" x="279" y="-1006.8" font-family="Times New Roman,serif" font-size="14.00">[1]</text>
<text text-anchor="middle" x="279" y="-991.8" font-family="Times New Roman,serif" font-size="14.00">3</text>
</g>
<!-- if_3589b30 -->
<g id="node3" class="node"><title>if_3589b30</title>
<polygon fill="none" stroke="black" points="232,-868 201.835,-850 232,-832 262.165,-850 232,-868"/>
<text text-anchor="middle" x="232" y="-846.3" font-family="Times New Roman,serif" font-size="14.00">&lt;=</text>
</g>
<!-- input_3589cf0&#45;&gt;if_3589b30 -->
<g id="edge2" class="edge"><title>input_3589cf0&#45;&gt;if_3589b30</title>
<path fill="none" stroke="black" d="M264.207,-933.581C257.828,-917.227 248.237,-892.634 241.18,-874.538"/>
<polygon fill="black" stroke="black" points="244.353,-873.042 237.459,-864.997 237.831,-875.585 244.353,-873.042"/>
<text text-anchor="middle" x="266" y="-904.8" font-family="Times New Roman,serif" font-size="14.00">[2]</text>
<text text-anchor="middle" x="266" y="-889.8" font-family="Times New Roman,serif" font-size="14.00">3</text>
</g>
<!-- constant_3589d50 -->
<g id="node4" class="node"><title>constant_3589d50</title>
<ellipse fill="none" stroke="black" cx="205" cy="-952" rx="18" ry="18"/>
<text text-anchor="middle" x="205" y="-948.3" font-family="Times New Roman,serif" font-size="14.00">2</text>
</g>
<!-- if_3589b30&#45;&gt;constant_3589d50 -->
<g id="edge3" class="edge"><title>if_3589b30&#45;&gt;constant_3589d50</title>
<path fill="none" stroke="black" stroke-dasharray="1,5" d="M217.623,-859.771C209.012,-865.919 198.826,-874.993 194,-886 188.542,-898.447 190.515,-913.333 194.198,-925.717"/>
<polygon fill="black" stroke="black" points="190.982,-927.124 197.57,-935.422 197.595,-924.827 190.982,-927.124"/>
<text text-anchor="middle" x="202" y="-897.3" font-family="Times New Roman,serif" font-size="14.00">[3]</text>
</g>
<!-- operator_3589e70 -->
<g id="node5" class="node"><title>operator_3589e70</title>
<polygon fill="none" stroke="black" points="324,-766 297,-748 324,-730 351,-748 324,-766"/>
<text text-anchor="middle" x="324" y="-744.3" font-family="Times New Roman,serif" font-size="14.00">&#45;</text>
</g>
<!-- if_3589b30&#45;&gt;operator_3589e70 -->
<g id="edge5" class="edge"><title>if_3589b30&#45;&gt;operator_3589e70</title>
<path fill="none" stroke="black" d="M242.197,-837.916C257.892,-820.857 288.138,-787.981 307.129,-767.338"/>
<polygon fill="black" stroke="black" points="309.842,-769.559 314.037,-759.83 304.69,-764.819 309.842,-769.559"/>
<text text-anchor="middle" x="300" y="-802.8" font-family="Times New Roman,serif" font-size="14.00">[5]</text>
<text text-anchor="middle" x="300" y="-787.8" font-family="Times New Roman,serif" font-size="14.00">3</text>
</g>
<!-- operator_3589970 -->
<g id="node13" class="node"><title>operator_3589970</title>
<polygon fill="none" stroke="black" points="175,-766 148,-748 175,-730 202,-748 175,-766"/>
<text text-anchor="middle" x="175" y="-744.3" font-family="Times New Roman,serif" font-size="14.00">&#45;</text>
</g>
<!-- if_3589b30&#45;&gt;operator_3589970 -->
<g id="edge17" class="edge"><title>if_3589b30&#45;&gt;operator_3589970</title>
<path fill="none" stroke="black" d="M215.543,-841.702C204.434,-835.868 190.481,-826.58 183,-814 176.168,-802.511 173.924,-787.867 173.494,-775.387"/>
<polygon fill="black" stroke="black" points="176.995,-775.119 173.515,-765.112 169.995,-775.105 176.995,-775.119"/>
<text text-anchor="middle" x="194.5" y="-802.8" font-family="Times New Roman,serif" font-size="14.00">[17]</text>
<text text-anchor="middle" x="194.5" y="-787.8" font-family="Times New Roman,serif" font-size="14.00">3</text>
</g>
<!-- constant_3589d50&#45;&gt;if_3589b30 -->
<g id="edge4" class="edge"><title>constant_3589d50&#45;&gt;if_3589b30</title>
<path fill="none" stroke="black" d="M209.459,-934.487C213.786,-918.46 220.407,-893.938 225.355,-875.611"/>
<polygon fill="black" stroke="black" points="228.748,-876.47 227.976,-865.903 221.99,-874.645 228.748,-876.47"/>
<text text-anchor="middle" x="231" y="-904.8" font-family="Times New Roman,serif" font-size="14.00">[4]</text>
<text text-anchor="middle" x="231" y="-889.8" font-family="Times New Roman,serif" font-size="14.00">2</text>
</g>
<!-- constant_3589e90 -->
<g id="node6" class="node"><title>constant_3589e90</title>
<ellipse fill="none" stroke="black" cx="335" cy="-850" rx="18" ry="18"/>
<text text-anchor="middle" x="335" y="-846.3" font-family="Times New Roman,serif" font-size="14.00">1</text>
</g>
<!-- operator_3589e70&#45;&gt;constant_3589e90 -->
<g id="edge6" class="edge"><title>operator_3589e70&#45;&gt;constant_3589e90</title>
<path fill="none" stroke="black" stroke-dasharray="1,5" d="M328.844,-762.781C330.848,-769.153 332.946,-776.873 334,-784 335.821,-796.309 336.259,-810.072 336.167,-821.753"/>
<polygon fill="black" stroke="black" points="332.667,-821.723 335.959,-831.794 339.665,-821.869 332.667,-821.723"/>
<text text-anchor="middle" x="344" y="-795.3" font-family="Times New Roman,serif" font-size="14.00">[6]</text>
</g>
<!-- input_35990d0 -->
<g id="node7" class="node"><title>input_35990d0</title>
<polygon fill="none" stroke="black" points="360,-664 324,-664 324,-628 360,-628 360,-664"/>
<text text-anchor="middle" x="342" y="-642.3" font-family="Times New Roman,serif" font-size="14.00">I</text>
</g>
<!-- operator_3589e70&#45;&gt;input_35990d0 -->
<g id="edge8" class="edge"><title>operator_3589e70&#45;&gt;input_35990d0</title>
<path fill="none" stroke="black" d="M326.734,-731.812C329.493,-716.486 333.811,-692.496 337.152,-673.936"/>
<polygon fill="black" stroke="black" points="340.612,-674.47 338.939,-664.008 333.722,-673.23 340.612,-674.47"/>
<text text-anchor="middle" x="343" y="-700.8" font-family="Times New Roman,serif" font-size="14.00">[8]</text>
<text text-anchor="middle" x="343" y="-685.8" font-family="Times New Roman,serif" font-size="14.00">2</text>
</g>
<!-- constant_3589e90&#45;&gt;operator_3589e70 -->
<g id="edge7" class="edge"><title>constant_3589e90&#45;&gt;operator_3589e70</title>
<path fill="none" stroke="black" d="M324.33,-835.163C320.251,-829.03 316.081,-821.512 314,-814 310.238,-800.418 312.429,-784.822 315.707,-772.311"/>
<polygon fill="black" stroke="black" points="319.087,-773.224 318.609,-762.64 312.382,-771.212 319.087,-773.224"/>
<text text-anchor="middle" x="322" y="-802.8" font-family="Times New Roman,serif" font-size="14.00">[7]</text>
<text text-anchor="middle" x="322" y="-787.8" font-family="Times New Roman,serif" font-size="14.00">1</text>
</g>
<!-- if_35990f0 -->
<g id="node8" class="node"><title>if_35990f0</title>
<polygon fill="none" stroke="black" points="285,-562 254.835,-544 285,-526 315.165,-544 285,-562"/>
<text text-anchor="middle" x="285" y="-540.3" font-family="Times New Roman,serif" font-size="14.00">&lt;=</text>
</g>
<!-- input_35990d0&#45;&gt;if_35990f0 -->
<g id="edge9" class="edge"><title>input_35990d0&#45;&gt;if_35990f0</title>
<path fill="none" stroke="black" d="M335.738,-627.844C330.499,-614.382 322.387,-595.407 313,-580 309.68,-574.551 305.614,-569.001 301.621,-563.975"/>
<polygon fill="black" stroke="black" points="304.188,-561.588 295.113,-556.12 298.798,-566.054 304.188,-561.588"/>
<text text-anchor="middle" x="336" y="-598.8" font-family="Times New Roman,serif" font-size="14.00">[9]</text>
<text text-anchor="middle" x="336" y="-583.8" font-family="Times New Roman,serif" font-size="14.00">2</text>
</g>
<!-- constant_3599110 -->
<g id="node9" class="node"><title>constant_3599110</title>
<ellipse fill="none" stroke="black" cx="259" cy="-646" rx="18" ry="18"/>
<text text-anchor="middle" x="259" y="-642.3" font-family="Times New Roman,serif" font-size="14.00">2</text>
</g>
<!-- if_35990f0&#45;&gt;constant_3599110 -->
<g id="edge10" class="edge"><title>if_35990f0&#45;&gt;constant_3599110</title>
<path fill="none" stroke="black" stroke-dasharray="1,5" d="M285.801,-561.696C285.952,-575.069 285.053,-594.148 280,-610 278.668,-614.177 276.754,-618.38 274.615,-622.352"/>
<polygon fill="black" stroke="black" points="271.524,-620.702 269.39,-631.08 277.53,-624.298 271.524,-620.702"/>
<text text-anchor="middle" x="297.5" y="-591.3" font-family="Times New Roman,serif" font-size="14.00">[10]</text>
</g>
<!-- constant_3599130 -->
<g id="node10" class="node"><title>constant_3599130</title>
<ellipse fill="none" stroke="black" cx="263" cy="-442" rx="18" ry="18"/>
<text text-anchor="middle" x="263" y="-438.3" font-family="Times New Roman,serif" font-size="14.00">1</text>
</g>
<!-- if_35990f0&#45;&gt;constant_3599130 -->
<g id="edge12" class="edge"><title>if_35990f0&#45;&gt;constant_3599130</title>
<path fill="none" stroke="black" d="M281.659,-527.812C278.267,-512.394 272.946,-488.208 268.853,-469.603"/>
<polygon fill="black" stroke="black" points="272.234,-468.682 266.667,-459.667 265.397,-470.186 272.234,-468.682"/>
<text text-anchor="middle" x="289.5" y="-496.8" font-family="Times New Roman,serif" font-size="14.00">[12]</text>
<text text-anchor="middle" x="289.5" y="-481.8" font-family="Times New Roman,serif" font-size="14.00">2</text>
</g>
<!-- constant_3599110&#45;&gt;if_35990f0 -->
<g id="edge11" class="edge"><title>constant_3599110&#45;&gt;if_35990f0</title>
<path fill="none" stroke="black" d="M253.529,-628.676C249.924,-615.178 246.889,-595.741 253,-580 255.603,-573.296 260.154,-567.093 265.022,-561.828"/>
<polygon fill="black" stroke="black" points="267.474,-564.326 272.19,-554.839 262.587,-559.314 267.474,-564.326"/>
<text text-anchor="middle" x="264.5" y="-598.8" font-family="Times New Roman,serif" font-size="14.00">[11]</text>
<text text-anchor="middle" x="264.5" y="-583.8" font-family="Times New Roman,serif" font-size="14.00">2</text>
</g>
<!-- output_3599150 -->
<g id="node11" class="node"><title>output_3599150</title>
<polygon fill="none" stroke="black" points="276,-358 240,-358 240,-322 276,-322 276,-358"/>
<text text-anchor="middle" x="258" y="-336.3" font-family="Times New Roman,serif" font-size="14.00">O</text>
</g>
<!-- constant_3599130&#45;&gt;output_3599150 -->
<g id="edge13" class="edge"><title>constant_3599130&#45;&gt;output_3599150</title>
<path fill="none" stroke="black" d="M262.129,-423.581C261.369,-408.382 260.253,-386.067 259.373,-368.464"/>
<polygon fill="black" stroke="black" points="262.856,-368.032 258.861,-358.219 255.865,-368.381 262.856,-368.032"/>
<text text-anchor="middle" x="273.5" y="-394.8" font-family="Times New Roman,serif" font-size="14.00">[13]</text>
<text text-anchor="middle" x="273.5" y="-379.8" font-family="Times New Roman,serif" font-size="14.00">1</text>
</g>
<!-- operator_3589990 -->
<g id="node12" class="node"><title>operator_3589990</title>
<polygon fill="none" stroke="black" points="199,-256 172,-238 199,-220 226,-238 199,-256"/>
<text text-anchor="middle" x="199" y="-234.3" font-family="Times New Roman,serif" font-size="14.00">+</text>
</g>
<!-- output_3599150&#45;&gt;operator_3589990 -->
<g id="edge14" class="edge"><title>output_3599150&#45;&gt;operator_3589990</title>
<path fill="none" stroke="black" d="M247.723,-321.581C237.658,-304.522 222.305,-278.5 211.53,-260.237"/>
<polygon fill="black" stroke="black" points="214.46,-258.316 206.364,-251.482 208.431,-261.873 214.46,-258.316"/>
<text text-anchor="middle" x="249.5" y="-292.8" font-family="Times New Roman,serif" font-size="14.00">[14]</text>
<text text-anchor="middle" x="249.5" y="-277.8" font-family="Times New Roman,serif" font-size="14.00">1</text>
</g>
<!-- operator_3589990&#45;&gt;operator_3589970 -->
<g id="edge15" class="edge"><title>operator_3589990&#45;&gt;operator_3589970</title>
<path fill="none" stroke="black" stroke-dasharray="1,5" d="M199,-256.343C199,-276.286 199,-310.007 199,-339 199,-647 199,-647 199,-647 199,-676.056 200.022,-684.073 192,-712 190.685,-716.579 188.804,-721.292 186.768,-725.717"/>
<polygon fill="black" stroke="black" points="183.577,-724.273 182.227,-734.781 189.836,-727.409 183.577,-724.273"/>
<text text-anchor="middle" x="210.5" y="-489.3" font-family="Times New Roman,serif" font-size="14.00">[15]</text>
</g>
<!-- output_3589b90 -->
<g id="node20" class="node"><title>output_3589b90</title>
<polygon fill="none" stroke="black" points="217,-154 181,-154 181,-118 217,-118 217,-154"/>
<text text-anchor="middle" x="199" y="-132.3" font-family="Times New Roman,serif" font-size="14.00">O</text>
</g>
<!-- operator_3589990&#45;&gt;output_3589b90 -->
<g id="edge27" class="edge"><title>operator_3589990&#45;&gt;output_3589b90</title>
<path fill="none" stroke="black" d="M199,-219.581C199,-204.382 199,-182.067 199,-164.464"/>
<polygon fill="black" stroke="black" points="202.5,-164.219 199,-154.219 195.5,-164.219 202.5,-164.219"/>
<text text-anchor="middle" x="210.5" y="-190.8" font-family="Times New Roman,serif" font-size="14.00">[27]</text>
<text text-anchor="middle" x="210.5" y="-175.8" font-family="Times New Roman,serif" font-size="14.00">2</text>
</g>
<!-- operator_3589970&#45;&gt;if_3589b30 -->
<g id="edge16" class="edge"><title>operator_3589970&#45;&gt;if_3589b30</title>
<path fill="none" stroke="black" stroke-dasharray="1,5" d="M186.796,-758.318C194.34,-764.815 203.833,-774.073 210,-784 217.564,-796.175 222.877,-811.263 226.385,-823.837"/>
<polygon fill="black" stroke="black" points="223.038,-824.874 228.916,-833.688 229.817,-823.132 223.038,-824.874"/>
<text text-anchor="middle" x="235.5" y="-795.3" font-family="Times New Roman,serif" font-size="14.00">[16]</text>
</g>
<!-- constant_3589d90 -->
<g id="node14" class="node"><title>constant_3589d90</title>
<ellipse fill="none" stroke="black" cx="117" cy="-850" rx="18" ry="18"/>
<text text-anchor="middle" x="117" y="-846.3" font-family="Times New Roman,serif" font-size="14.00">2</text>
</g>
<!-- operator_3589970&#45;&gt;constant_3589d90 -->
<g id="edge18" class="edge"><title>operator_3589970&#45;&gt;constant_3589d90</title>
<path fill="none" stroke="black" stroke-dasharray="1,5" d="M165.613,-759.913C160.105,-766.607 153.224,-775.5 148,-784 140.252,-796.607 133.042,-811.451 127.529,-823.769"/>
<polygon fill="black" stroke="black" points="124.286,-822.449 123.493,-833.014 130.701,-825.25 124.286,-822.449"/>
<text text-anchor="middle" x="159.5" y="-795.3" font-family="Times New Roman,serif" font-size="14.00">[18]</text>
</g>
<!-- input_3599390 -->
<g id="node15" class="node"><title>input_3599390</title>
<polygon fill="none" stroke="black" points="163,-664 127,-664 127,-628 163,-628 163,-664"/>
<text text-anchor="middle" x="145" y="-642.3" font-family="Times New Roman,serif" font-size="14.00">I</text>
</g>
<!-- operator_3589970&#45;&gt;input_3599390 -->
<g id="edge20" class="edge"><title>operator_3589970&#45;&gt;input_3599390</title>
<path fill="none" stroke="black" d="M170.702,-732.672C166.136,-717.453 158.81,-693.033 153.145,-674.151"/>
<polygon fill="black" stroke="black" points="156.423,-672.897 150.197,-664.324 149.718,-674.908 156.423,-672.897"/>
<text text-anchor="middle" x="176.5" y="-700.8" font-family="Times New Roman,serif" font-size="14.00">[20]</text>
<text text-anchor="middle" x="176.5" y="-685.8" font-family="Times New Roman,serif" font-size="14.00">1</text>
</g>
<!-- constant_3589d90&#45;&gt;operator_3589970 -->
<g id="edge19" class="edge"><title>constant_3589d90&#45;&gt;operator_3589970</title>
<path fill="none" stroke="black" d="M108.88,-833.69C102.708,-819.757 96.7172,-799.117 106,-784 114.68,-769.864 131.044,-761.221 145.658,-756.062"/>
<polygon fill="black" stroke="black" points="146.88,-759.347 155.379,-753.021 144.79,-752.666 146.88,-759.347"/>
<text text-anchor="middle" x="117.5" y="-802.8" font-family="Times New Roman,serif" font-size="14.00">[19]</text>
<text text-anchor="middle" x="117.5" y="-787.8" font-family="Times New Roman,serif" font-size="14.00">2</text>
</g>
<!-- if_35993b0 -->
<g id="node16" class="node"><title>if_35993b0</title>
<polygon fill="none" stroke="black" points="116,-562 85.8347,-544 116,-526 146.165,-544 116,-562"/>
<text text-anchor="middle" x="116" y="-540.3" font-family="Times New Roman,serif" font-size="14.00">&lt;=</text>
</g>
<!-- input_3599390&#45;&gt;if_35993b0 -->
<g id="edge21" class="edge"><title>input_3599390&#45;&gt;if_35993b0</title>
<path fill="none" stroke="black" d="M136.211,-627.869C133.605,-622.281 130.934,-615.975 129,-610 124.888,-597.298 121.833,-582.759 119.722,-570.657"/>
<polygon fill="black" stroke="black" points="123.171,-570.062 118.106,-560.756 116.262,-571.19 123.171,-570.062"/>
<text text-anchor="middle" x="140.5" y="-598.8" font-family="Times New Roman,serif" font-size="14.00">[21]</text>
<text text-anchor="middle" x="140.5" y="-583.8" font-family="Times New Roman,serif" font-size="14.00">1</text>
</g>
<!-- constant_35993d0 -->
<g id="node17" class="node"><title>constant_35993d0</title>
<ellipse fill="none" stroke="black" cx="70" cy="-646" rx="18" ry="18"/>
<text text-anchor="middle" x="70" y="-642.3" font-family="Times New Roman,serif" font-size="14.00">2</text>
</g>
<!-- if_35993b0&#45;&gt;constant_35993d0 -->
<g id="edge22" class="edge"><title>if_35993b0&#45;&gt;constant_35993d0</title>
<path fill="none" stroke="black" stroke-dasharray="1,5" d="M107.877,-557.343C103.737,-563.917 98.7899,-572.23 95,-580 88.8715,-592.565 83.1791,-607.039 78.779,-619.135"/>
<polygon fill="black" stroke="black" points="75.4512,-618.048 75.4057,-628.643 82.0483,-620.389 75.4512,-618.048"/>
<text text-anchor="middle" x="106.5" y="-591.3" font-family="Times New Roman,serif" font-size="14.00">[22]</text>
</g>
<!-- constant_35993f0 -->
<g id="node18" class="node"><title>constant_35993f0</title>
<ellipse fill="none" stroke="black" cx="123" cy="-442" rx="18" ry="18"/>
<text text-anchor="middle" x="123" y="-438.3" font-family="Times New Roman,serif" font-size="14.00">1</text>
</g>
<!-- if_35993b0&#45;&gt;constant_35993f0 -->
<g id="edge24" class="edge"><title>if_35993b0&#45;&gt;constant_35993f0</title>
<path fill="none" stroke="black" d="M110.787,-528.94C106.594,-515.698 102.007,-495.358 106,-478 106.853,-474.293 108.153,-470.523 109.662,-466.897"/>
<polygon fill="black" stroke="black" points="112.863,-468.315 113.983,-457.78 106.538,-465.317 112.863,-468.315"/>
<text text-anchor="middle" x="117.5" y="-496.8" font-family="Times New Roman,serif" font-size="14.00">[24]</text>
<text text-anchor="middle" x="117.5" y="-481.8" font-family="Times New Roman,serif" font-size="14.00">1</text>
</g>
<!-- constant_35993d0&#45;&gt;if_35993b0 -->
<g id="edge23" class="edge"><title>constant_35993d0&#45;&gt;if_35993b0</title>
<path fill="none" stroke="black" d="M61.1546,-630.142C54.1917,-616.336 47.031,-595.615 56,-580 62.8247,-568.118 75.4112,-559.889 87.3003,-554.41"/>
<polygon fill="black" stroke="black" points="88.6528,-557.638 96.5622,-550.589 85.9831,-551.167 88.6528,-557.638"/>
<text text-anchor="middle" x="67.5" y="-598.8" font-family="Times New Roman,serif" font-size="14.00">[23]</text>
<text text-anchor="middle" x="67.5" y="-583.8" font-family="Times New Roman,serif" font-size="14.00">2</text>
</g>
<!-- output_3599410 -->
<g id="node19" class="node"><title>output_3599410</title>
<polygon fill="none" stroke="black" points="163,-358 127,-358 127,-322 163,-322 163,-358"/>
<text text-anchor="middle" x="145" y="-336.3" font-family="Times New Roman,serif" font-size="14.00">O</text>
</g>
<!-- constant_35993f0&#45;&gt;output_3599410 -->
<g id="edge25" class="edge"><title>constant_35993f0&#45;&gt;output_3599410</title>
<path fill="none" stroke="black" d="M117.348,-424.764C113.577,-411.319 110.265,-391.909 116,-376 117.214,-372.632 118.909,-369.358 120.876,-366.25"/>
<polygon fill="black" stroke="black" points="123.846,-368.121 126.967,-357.996 118.213,-363.964 123.846,-368.121"/>
<text text-anchor="middle" x="127.5" y="-394.8" font-family="Times New Roman,serif" font-size="14.00">[25]</text>
<text text-anchor="middle" x="127.5" y="-379.8" font-family="Times New Roman,serif" font-size="14.00">1</text>
</g>
<!-- output_3599410&#45;&gt;operator_3589990 -->
<g id="edge26" class="edge"><title>output_3599410&#45;&gt;operator_3589990</title>
<path fill="none" stroke="black" d="M150.327,-321.802C154.865,-308.317 162.066,-289.332 171,-274 174.263,-268.401 178.366,-262.74 182.418,-257.651"/>
<polygon fill="black" stroke="black" points="185.304,-259.656 189.03,-249.738 179.932,-255.168 185.304,-259.656"/>
<text text-anchor="middle" x="182.5" y="-292.8" font-family="Times New Roman,serif" font-size="14.00">[26]</text>
<text text-anchor="middle" x="182.5" y="-277.8" font-family="Times New Roman,serif" font-size="14.00">1</text>
</g>
<!-- output_3589bf0 -->
<g id="node21" class="node"><title>output_3589bf0</title>
<polygon fill="none" stroke="black" points="217,-52 181,-52 181,-16 217,-16 217,-52"/>
<text text-anchor="middle" x="199" y="-30.3" font-family="Times New Roman,serif" font-size="14.00">O</text>
</g>
<!-- output_3589b90&#45;&gt;output_3589bf0 -->
<g id="edge28" class="edge"><title>output_3589b90&#45;&gt;output_3589bf0</title>
<path fill="none" stroke="black" d="M199,-117.581C199,-102.382 199,-80.0669 199,-62.4644"/>
<polygon fill="black" stroke="black" points="202.5,-62.219 199,-52.2191 195.5,-62.2191 202.5,-62.219"/>
<text text-anchor="middle" x="210.5" y="-88.8" font-family="Times New Roman,serif" font-size="14.00">[28]</text>
<text text-anchor="middle" x="210.5" y="-73.8" font-family="Times New Roman,serif" font-size="14.00">2</text>
</g>
</g>
</svg>
