<?xml version="1.0" encoding="UTF-8" standalone="no"?>
<!DOCTYPE svg PUBLIC "-//W3C//DTD SVG 1.1//EN"
 "http://www.w3.org/Graphics/SVG/1.1/DTD/svg11.dtd">
<!-- Generated by graphviz version 2.38.0 (20140413.2041)
 -->
<!-- Title: %3 Pages: 1 -->
<svg width="593pt" height="1418pt"
 viewBox="0.00 0.00 593.00 1418.00" xmlns="http://www.w3.org/2000/svg" xmlns:xlink="http://www.w3.org/1999/xlink">
<g id="graph0" class="graph" transform="scale(1 1) rotate(0) translate(4 1414)">
<title>%3</title>
<polygon fill="white" stroke="none" points="-4,4 -4,-1414 589,-1414 589,4 -4,4"/>
<g id="clust4" class="cluster"><title>cluster_1</title>
<polygon fill="none" stroke="black" points="8,-658 8,-1114 157,-1114 157,-658 8,-658"/>
<text text-anchor="middle" x="54" y="-1098.8" font-family="Times New Roman,serif" font-size="14.00">self subspace</text>
</g>
<g id="clust6" class="cluster"><title>cluster_2</title>
<polygon fill="none" stroke="black" points="206,-196 206,-1114 577,-1114 577,-196 206,-196"/>
<text text-anchor="middle" x="252" y="-1098.8" font-family="Times New Roman,serif" font-size="14.00">self subspace</text>
</g>
<g id="clust12" class="cluster"><title>cluster_2_2</title>
<polygon fill="none" stroke="black" points="214,-400 214,-787 363,-787 363,-400 214,-400"/>
<text text-anchor="middle" x="260" y="-771.8" font-family="Times New Roman,serif" font-size="14.00">self subspace</text>
</g>
<g id="clust10" class="cluster"><title>cluster_2_1</title>
<polygon fill="none" stroke="black" points="420,-400 420,-787 569,-787 569,-400 420,-400"/>
<text text-anchor="middle" x="466" y="-771.8" font-family="Times New Roman,serif" font-size="14.00">self subspace</text>
</g>
<!-- input_8aef10 -->
<g id="node1" class="node"><title>input_8aef10</title>
<polygon fill="none" stroke="black" points="246,-1410 210,-1410 210,-1374 246,-1374 246,-1410"/>
<text text-anchor="middle" x="228" y="-1388.3" font-family="Times New Roman,serif" font-size="14.00">I</text>
</g>
<!-- if_8aef30 -->
<g id="node2" class="node"><title>if_8aef30</title>
<polygon fill="none" stroke="black" points="267,-1308 236.835,-1290 267,-1272 297.165,-1290 267,-1308"/>
<text text-anchor="middle" x="267" y="-1286.3" font-family="Times New Roman,serif" font-size="14.00">&lt;=</text>
</g>
<!-- input_8aef10&#45;&gt;if_8aef30 -->
<g id="edge1" class="edge"><title>input_8aef10&#45;&gt;if_8aef30</title>
<path fill="none" stroke="black" d="M230.566,-1373.92C232.965,-1360.51 237.215,-1341.55 244,-1326 246.197,-1320.96 249.101,-1315.85 252.103,-1311.15"/>
<polygon fill="black" stroke="black" points="255.1,-1312.96 257.837,-1302.73 249.314,-1309.02 255.1,-1312.96"/>
<text text-anchor="middle" x="252" y="-1344.8" font-family="Times New Roman,serif" font-size="14.00">[1]</text>
<text text-anchor="middle" x="252" y="-1329.8" font-family="Times New Roman,serif" font-size="14.00">4</text>
</g>
<!-- constant_2dd6650 -->
<g id="node3" class="node"><title>constant_2dd6650</title>
<ellipse fill="none" stroke="black" cx="294" cy="-1392" rx="18" ry="18"/>
<text text-anchor="middle" x="294" y="-1388.3" font-family="Times New Roman,serif" font-size="14.00">2</text>
</g>
<!-- if_8aef30&#45;&gt;constant_2dd6650 -->
<g id="edge2" class="edge"><title>if_8aef30&#45;&gt;constant_2dd6650</title>
<path fill="none" stroke="black" stroke-dasharray="1,5" d="M264.603,-1306.69C263.16,-1320.15 262.524,-1339.86 268,-1356 269.719,-1361.07 272.472,-1366 275.555,-1370.5"/>
<polygon fill="black" stroke="black" points="272.841,-1372.71 281.709,-1378.51 278.392,-1368.44 272.841,-1372.71"/>
<text text-anchor="middle" x="276" y="-1337.3" font-family="Times New Roman,serif" font-size="14.00">[2]</text>
</g>
<!-- operator_8c4550 -->
<g id="node4" class="node"><title>operator_8c4550</title>
<polygon fill="none" stroke="black" points="358,-1206 331,-1188 358,-1170 385,-1188 358,-1206"/>
<text text-anchor="middle" x="358" y="-1184.3" font-family="Times New Roman,serif" font-size="14.00">&#45;</text>
</g>
<!-- if_8aef30&#45;&gt;operator_8c4550 -->
<g id="edge4" class="edge"><title>if_8aef30&#45;&gt;operator_8c4550</title>
<path fill="none" stroke="black" d="M277.086,-1277.92C292.61,-1260.86 322.528,-1227.98 341.313,-1207.34"/>
<polygon fill="black" stroke="black" points="344.003,-1209.58 348.145,-1199.83 338.826,-1204.87 344.003,-1209.58"/>
<text text-anchor="middle" x="334" y="-1242.8" font-family="Times New Roman,serif" font-size="14.00">[4]</text>
<text text-anchor="middle" x="334" y="-1227.8" font-family="Times New Roman,serif" font-size="14.00">4</text>
</g>
<!-- operator_8c45b0 -->
<g id="node26" class="node"><title>operator_8c45b0</title>
<polygon fill="none" stroke="black" points="175,-1206 148,-1188 175,-1170 202,-1188 175,-1206"/>
<text text-anchor="middle" x="175" y="-1184.3" font-family="Times New Roman,serif" font-size="14.00">&#45;</text>
</g>
<!-- if_8aef30&#45;&gt;operator_8c45b0 -->
<g id="edge37" class="edge"><title>if_8aef30&#45;&gt;operator_8c45b0</title>
<path fill="none" stroke="black" d="M252.195,-1280.44C241.864,-1274.01 228.162,-1264.53 218,-1254 205.526,-1241.07 194.425,-1224.07 186.627,-1210.7"/>
<polygon fill="black" stroke="black" points="189.521,-1208.7 181.561,-1201.71 183.424,-1212.14 189.521,-1208.7"/>
<text text-anchor="middle" x="229.5" y="-1242.8" font-family="Times New Roman,serif" font-size="14.00">[37]</text>
<text text-anchor="middle" x="229.5" y="-1227.8" font-family="Times New Roman,serif" font-size="14.00">4</text>
</g>
<!-- constant_2dd6650&#45;&gt;if_8aef30 -->
<g id="edge3" class="edge"><title>constant_2dd6650&#45;&gt;if_8aef30</title>
<path fill="none" stroke="black" d="M292.771,-1373.85C291.484,-1360.56 288.93,-1341.8 284,-1326 282.665,-1321.72 280.879,-1317.31 278.966,-1313.12"/>
<polygon fill="black" stroke="black" points="281.989,-1311.33 274.425,-1303.91 275.711,-1314.43 281.989,-1311.33"/>
<text text-anchor="middle" x="299" y="-1344.8" font-family="Times New Roman,serif" font-size="14.00">[3]</text>
<text text-anchor="middle" x="299" y="-1329.8" font-family="Times New Roman,serif" font-size="14.00">2</text>
</g>
<!-- constant_2dd6690 -->
<g id="node5" class="node"><title>constant_2dd6690</title>
<ellipse fill="none" stroke="black" cx="374" cy="-1290" rx="18" ry="18"/>
<text text-anchor="middle" x="374" y="-1286.3" font-family="Times New Roman,serif" font-size="14.00">1</text>
</g>
<!-- operator_8c4550&#45;&gt;constant_2dd6690 -->
<g id="edge5" class="edge"><title>operator_8c4550&#45;&gt;constant_2dd6690</title>
<path fill="none" stroke="black" stroke-dasharray="1,5" d="M355.279,-1204.21C353.425,-1217.53 351.962,-1237.32 356,-1254 356.905,-1257.74 358.283,-1261.53 359.882,-1265.16"/>
<polygon fill="black" stroke="black" points="356.845,-1266.91 364.458,-1274.28 363.102,-1263.78 356.845,-1266.91"/>
<text text-anchor="middle" x="364" y="-1235.3" font-family="Times New Roman,serif" font-size="14.00">[5]</text>
</g>
<!-- input_2dd6870 -->
<g id="node6" class="node"><title>input_2dd6870</title>
<polygon fill="none" stroke="black" points="404,-1083 368,-1083 368,-1047 404,-1047 404,-1083"/>
<text text-anchor="middle" x="386" y="-1061.3" font-family="Times New Roman,serif" font-size="14.00">I</text>
</g>
<!-- operator_8c4550&#45;&gt;input_2dd6870 -->
<g id="edge7" class="edge"><title>operator_8c4550&#45;&gt;input_2dd6870</title>
<path fill="none" stroke="black" d="M361.433,-1172.16C365.962,-1152.59 374.017,-1117.78 379.665,-1093.37"/>
<polygon fill="black" stroke="black" points="383.151,-1093.84 381.996,-1083.3 376.331,-1092.26 383.151,-1093.84"/>
<text text-anchor="middle" x="381" y="-1140.8" font-family="Times New Roman,serif" font-size="14.00">[7]</text>
<text text-anchor="middle" x="381" y="-1125.8" font-family="Times New Roman,serif" font-size="14.00">3</text>
</g>
<!-- constant_2dd6690&#45;&gt;operator_8c4550 -->
<g id="edge6" class="edge"><title>constant_2dd6690&#45;&gt;operator_8c4550</title>
<path fill="none" stroke="black" d="M375.083,-1271.98C375.54,-1258.75 375.343,-1240.03 372,-1224 371.138,-1219.87 369.821,-1215.59 368.333,-1211.51"/>
<polygon fill="black" stroke="black" points="371.455,-1209.9 364.444,-1201.96 364.972,-1212.54 371.455,-1209.9"/>
<text text-anchor="middle" x="384" y="-1242.8" font-family="Times New Roman,serif" font-size="14.00">[6]</text>
<text text-anchor="middle" x="384" y="-1227.8" font-family="Times New Roman,serif" font-size="14.00">1</text>
</g>
<!-- if_2dd6890 -->
<g id="node7" class="node"><title>if_2dd6890</title>
<polygon fill="none" stroke="black" points="349,-981 318.835,-963 349,-945 379.165,-963 349,-981"/>
<text text-anchor="middle" x="349" y="-959.3" font-family="Times New Roman,serif" font-size="14.00">&lt;=</text>
</g>
<!-- input_2dd6870&#45;&gt;if_2dd6890 -->
<g id="edge8" class="edge"><title>input_2dd6870&#45;&gt;if_2dd6890</title>
<path fill="none" stroke="black" d="M382.368,-1046.82C379.287,-1033.51 374.357,-1014.74 368,-999 366.204,-994.552 363.986,-989.945 361.707,-985.591"/>
<polygon fill="black" stroke="black" points="364.655,-983.689 356.759,-976.625 358.526,-987.071 364.655,-983.689"/>
<text text-anchor="middle" x="386" y="-1017.8" font-family="Times New Roman,serif" font-size="14.00">[8]</text>
<text text-anchor="middle" x="386" y="-1002.8" font-family="Times New Roman,serif" font-size="14.00">3</text>
</g>
<!-- constant_2dd68b0 -->
<g id="node8" class="node"><title>constant_2dd68b0</title>
<ellipse fill="none" stroke="black" cx="324" cy="-1065" rx="18" ry="18"/>
<text text-anchor="middle" x="324" y="-1061.3" font-family="Times New Roman,serif" font-size="14.00">2</text>
</g>
<!-- if_2dd6890&#45;&gt;constant_2dd68b0 -->
<g id="edge9" class="edge"><title>if_2dd6890&#45;&gt;constant_2dd68b0</title>
<path fill="none" stroke="black" stroke-dasharray="1,5" d="M334.255,-972.685C325.42,-978.8 314.968,-987.867 310,-999 304.284,-1011.81 307.149,-1027.1 311.736,-1039.64"/>
<polygon fill="black" stroke="black" points="308.564,-1041.12 315.654,-1049 315.021,-1038.42 308.564,-1041.12"/>
<text text-anchor="middle" x="318" y="-1010.3" font-family="Times New Roman,serif" font-size="14.00">[9]</text>
</g>
<!-- operator_2dd6910 -->
<g id="node9" class="node"><title>operator_2dd6910</title>
<polygon fill="none" stroke="black" points="505,-879 478,-861 505,-843 532,-861 505,-879"/>
<text text-anchor="middle" x="505" y="-857.3" font-family="Times New Roman,serif" font-size="14.00">&#45;</text>
</g>
<!-- if_2dd6890&#45;&gt;operator_2dd6910 -->
<g id="edge11" class="edge"><title>if_2dd6890&#45;&gt;operator_2dd6910</title>
<path fill="none" stroke="black" d="M362.844,-953.126C389.992,-935.723 450.407,-896.996 483.053,-876.068"/>
<polygon fill="black" stroke="black" points="485.321,-878.772 491.851,-870.429 481.543,-872.879 485.321,-878.772"/>
<text text-anchor="middle" x="462.5" y="-915.8" font-family="Times New Roman,serif" font-size="14.00">[11]</text>
<text text-anchor="middle" x="462.5" y="-900.8" font-family="Times New Roman,serif" font-size="14.00">3</text>
</g>
<!-- operator_2dd69d0 -->
<g id="node17" class="node"><title>operator_2dd69d0</title>
<polygon fill="none" stroke="black" points="338,-879 311,-861 338,-843 365,-861 338,-879"/>
<text text-anchor="middle" x="338" y="-857.3" font-family="Times New Roman,serif" font-size="14.00">&#45;</text>
</g>
<!-- if_2dd6890&#45;&gt;operator_2dd69d0 -->
<g id="edge23" class="edge"><title>if_2dd6890&#45;&gt;operator_2dd69d0</title>
<path fill="none" stroke="black" d="M346.062,-946.712C344.97,-940.601 343.804,-933.485 343,-927 341.444,-914.445 340.294,-900.461 339.491,-888.69"/>
<polygon fill="black" stroke="black" points="342.978,-888.364 338.851,-878.606 335.992,-888.808 342.978,-888.364"/>
<text text-anchor="middle" x="354.5" y="-915.8" font-family="Times New Roman,serif" font-size="14.00">[23]</text>
<text text-anchor="middle" x="354.5" y="-900.8" font-family="Times New Roman,serif" font-size="14.00">3</text>
</g>
<!-- constant_2dd68b0&#45;&gt;if_2dd6890 -->
<g id="edge10" class="edge"><title>constant_2dd68b0&#45;&gt;if_2dd6890</title>
<path fill="none" stroke="black" d="M328.241,-1047.04C332.224,-1031.11 338.231,-1007.08 342.76,-988.959"/>
<polygon fill="black" stroke="black" points="346.2,-989.631 345.23,-979.081 339.409,-987.934 346.2,-989.631"/>
<text text-anchor="middle" x="352.5" y="-1017.8" font-family="Times New Roman,serif" font-size="14.00">[10]</text>
<text text-anchor="middle" x="352.5" y="-1002.8" font-family="Times New Roman,serif" font-size="14.00">2</text>
</g>
<!-- constant_2dd6950 -->
<g id="node10" class="node"><title>constant_2dd6950</title>
<ellipse fill="none" stroke="black" cx="521" cy="-963" rx="18" ry="18"/>
<text text-anchor="middle" x="521" y="-959.3" font-family="Times New Roman,serif" font-size="14.00">1</text>
</g>
<!-- operator_2dd6910&#45;&gt;constant_2dd6950 -->
<g id="edge12" class="edge"><title>operator_2dd6910&#45;&gt;constant_2dd6950</title>
<path fill="none" stroke="black" stroke-dasharray="1,5" d="M512.579,-874.128C516.205,-880.643 520.153,-888.968 522,-897 524.809,-909.21 524.993,-923.054 524.301,-934.819"/>
<polygon fill="black" stroke="black" points="520.801,-934.678 523.47,-944.932 527.778,-935.252 520.801,-934.678"/>
<text text-anchor="middle" x="535.5" y="-908.3" font-family="Times New Roman,serif" font-size="14.00">[12]</text>
</g>
<!-- input_2dd6c30 -->
<g id="node11" class="node"><title>input_2dd6c30</title>
<polygon fill="none" stroke="black" points="546,-756 510,-756 510,-720 546,-720 546,-756"/>
<text text-anchor="middle" x="528" y="-734.3" font-family="Times New Roman,serif" font-size="14.00">I</text>
</g>
<!-- operator_2dd6910&#45;&gt;input_2dd6c30 -->
<g id="edge14" class="edge"><title>operator_2dd6910&#45;&gt;input_2dd6c30</title>
<path fill="none" stroke="black" d="M507.913,-844.675C511.662,-824.955 518.238,-790.356 522.842,-766.136"/>
<polygon fill="black" stroke="black" points="526.311,-766.625 524.741,-756.148 519.435,-765.318 526.311,-766.625"/>
<text text-anchor="middle" x="528.5" y="-813.8" font-family="Times New Roman,serif" font-size="14.00">[14]</text>
<text text-anchor="middle" x="528.5" y="-798.8" font-family="Times New Roman,serif" font-size="14.00">2</text>
</g>
<!-- constant_2dd6950&#45;&gt;operator_2dd6910 -->
<g id="edge13" class="edge"><title>constant_2dd6950&#45;&gt;operator_2dd6910</title>
<path fill="none" stroke="black" d="M508.651,-949.526C503.354,-943.304 497.758,-935.336 495,-927 490.546,-913.535 492.769,-897.833 496.238,-885.235"/>
<polygon fill="black" stroke="black" points="499.638,-886.091 499.325,-875.501 492.966,-883.975 499.638,-886.091"/>
<text text-anchor="middle" x="506.5" y="-915.8" font-family="Times New Roman,serif" font-size="14.00">[13]</text>
<text text-anchor="middle" x="506.5" y="-900.8" font-family="Times New Roman,serif" font-size="14.00">1</text>
</g>
<!-- if_2dd6c50 -->
<g id="node12" class="node"><title>if_2dd6c50</title>
<polygon fill="none" stroke="black" points="475,-648 444.835,-630 475,-612 505.165,-630 475,-648"/>
<text text-anchor="middle" x="475" y="-626.3" font-family="Times New Roman,serif" font-size="14.00">&lt;=</text>
</g>
<!-- input_2dd6c30&#45;&gt;if_2dd6c50 -->
<g id="edge15" class="edge"><title>input_2dd6c30&#45;&gt;if_2dd6c50</title>
<path fill="none" stroke="black" d="M525.144,-719.942C521.778,-703.206 515.053,-677.44 503,-658 500.781,-654.422 497.983,-650.985 495.018,-647.833"/>
<polygon fill="black" stroke="black" points="497.184,-645.061 487.543,-640.667 492.339,-650.114 497.184,-645.061"/>
<text text-anchor="middle" x="531.5" y="-687.8" font-family="Times New Roman,serif" font-size="14.00">[15]</text>
<text text-anchor="middle" x="531.5" y="-672.8" font-family="Times New Roman,serif" font-size="14.00">2</text>
</g>
<!-- constant_2dd6c90 -->
<g id="node13" class="node"><title>constant_2dd6c90</title>
<ellipse fill="none" stroke="black" cx="455" cy="-738" rx="18" ry="18"/>
<text text-anchor="middle" x="455" y="-734.3" font-family="Times New Roman,serif" font-size="14.00">2</text>
</g>
<!-- if_2dd6c50&#45;&gt;constant_2dd6c90 -->
<g id="edge16" class="edge"><title>if_2dd6c50&#45;&gt;constant_2dd6c90</title>
<path fill="none" stroke="black" stroke-dasharray="1,5" d="M475.383,-647.882C475.342,-662.422 474.392,-683.865 470,-702 469.166,-705.446 468.023,-708.983 466.737,-712.424"/>
<polygon fill="black" stroke="black" points="463.486,-711.126 462.873,-721.703 469.948,-713.817 463.486,-711.126"/>
<text text-anchor="middle" x="487.5" y="-680.3" font-family="Times New Roman,serif" font-size="14.00">[16]</text>
</g>
<!-- constant_2dd6cd0 -->
<g id="node14" class="node"><title>constant_2dd6cd0</title>
<ellipse fill="none" stroke="black" cx="453" cy="-528" rx="18" ry="18"/>
<text text-anchor="middle" x="453" y="-524.3" font-family="Times New Roman,serif" font-size="14.00">1</text>
</g>
<!-- if_2dd6c50&#45;&gt;constant_2dd6cd0 -->
<g id="edge18" class="edge"><title>if_2dd6c50&#45;&gt;constant_2dd6cd0</title>
<path fill="none" stroke="black" d="M471.659,-613.812C468.267,-598.394 462.946,-574.208 458.853,-555.603"/>
<polygon fill="black" stroke="black" points="462.234,-554.682 456.667,-545.667 455.397,-556.186 462.234,-554.682"/>
<text text-anchor="middle" x="479.5" y="-582.8" font-family="Times New Roman,serif" font-size="14.00">[18]</text>
<text text-anchor="middle" x="479.5" y="-567.8" font-family="Times New Roman,serif" font-size="14.00">2</text>
</g>
<!-- constant_2dd6c90&#45;&gt;if_2dd6c50 -->
<g id="edge17" class="edge"><title>constant_2dd6c90&#45;&gt;if_2dd6c50</title>
<path fill="none" stroke="black" d="M447.627,-721.416C440.942,-704.927 433.472,-678.507 443,-658 445.146,-653.381 448.514,-649.269 452.275,-645.731"/>
<polygon fill="black" stroke="black" points="454.677,-648.29 460.28,-639.298 450.292,-642.834 454.677,-648.29"/>
<text text-anchor="middle" x="454.5" y="-687.8" font-family="Times New Roman,serif" font-size="14.00">[17]</text>
<text text-anchor="middle" x="454.5" y="-672.8" font-family="Times New Roman,serif" font-size="14.00">2</text>
</g>
<!-- output_2dd6d10 -->
<g id="node15" class="node"><title>output_2dd6d10</title>
<polygon fill="none" stroke="black" points="466,-444 430,-444 430,-408 466,-408 466,-444"/>
<text text-anchor="middle" x="448" y="-422.3" font-family="Times New Roman,serif" font-size="14.00">O</text>
</g>
<!-- constant_2dd6cd0&#45;&gt;output_2dd6d10 -->
<g id="edge19" class="edge"><title>constant_2dd6cd0&#45;&gt;output_2dd6d10</title>
<path fill="none" stroke="black" d="M452.129,-509.581C451.369,-494.382 450.253,-472.067 449.373,-454.464"/>
<polygon fill="black" stroke="black" points="452.856,-454.032 448.861,-444.219 445.865,-454.381 452.856,-454.032"/>
<text text-anchor="middle" x="463.5" y="-480.8" font-family="Times New Roman,serif" font-size="14.00">[19]</text>
<text text-anchor="middle" x="463.5" y="-465.8" font-family="Times New Roman,serif" font-size="14.00">1</text>
</g>
<!-- operator_2dd6990 -->
<g id="node16" class="node"><title>operator_2dd6990</title>
<polygon fill="none" stroke="black" points="361,-342 334,-324 361,-306 388,-324 361,-342"/>
<text text-anchor="middle" x="361" y="-320.3" font-family="Times New Roman,serif" font-size="14.00">+</text>
</g>
<!-- output_2dd6d10&#45;&gt;operator_2dd6990 -->
<g id="edge20" class="edge"><title>output_2dd6d10&#45;&gt;operator_2dd6990</title>
<path fill="none" stroke="black" d="M434.3,-407.92C423.552,-394.666 408.101,-375.928 394,-360 389.016,-354.37 383.456,-348.371 378.342,-342.959"/>
<polygon fill="black" stroke="black" points="380.721,-340.383 371.287,-335.561 375.655,-345.214 380.721,-340.383"/>
<text text-anchor="middle" x="431.5" y="-378.8" font-family="Times New Roman,serif" font-size="14.00">[20]</text>
<text text-anchor="middle" x="431.5" y="-363.8" font-family="Times New Roman,serif" font-size="14.00">1</text>
</g>
<!-- operator_2dd6990&#45;&gt;operator_2dd69d0 -->
<g id="edge21" class="edge"><title>operator_2dd6990&#45;&gt;operator_2dd69d0</title>
<path fill="none" stroke="black" stroke-dasharray="1,5" d="M368.517,-337.212C372.218,-343.75 376.427,-352.071 379,-360 388.023,-387.801 389,-395.771 389,-425 389,-739 389,-739 389,-739 389,-778.683 382.781,-789.524 365,-825 362.136,-830.714 358.278,-836.414 354.376,-841.505"/>
<polygon fill="black" stroke="black" points="351.549,-839.433 347.935,-849.392 356.971,-843.861 351.549,-839.433"/>
<text text-anchor="middle" x="400.5" y="-575.3" font-family="Times New Roman,serif" font-size="14.00">[21]</text>
</g>
<!-- output_2dd68f0 -->
<g id="node24" class="node"><title>output_2dd68f0</title>
<polygon fill="none" stroke="black" points="282,-240 246,-240 246,-204 282,-204 282,-240"/>
<text text-anchor="middle" x="264" y="-218.3" font-family="Times New Roman,serif" font-size="14.00">O</text>
</g>
<!-- operator_2dd6990&#45;&gt;output_2dd68f0 -->
<g id="edge33" class="edge"><title>operator_2dd6990&#45;&gt;output_2dd68f0</title>
<path fill="none" stroke="black" d="M350.985,-312.675C336.155,-297.386 307.926,-268.285 287.645,-247.376"/>
<polygon fill="black" stroke="black" points="290.046,-244.825 280.572,-240.084 285.022,-249.699 290.046,-244.825"/>
<text text-anchor="middle" x="338.5" y="-276.8" font-family="Times New Roman,serif" font-size="14.00">[33]</text>
<text text-anchor="middle" x="338.5" y="-261.8" font-family="Times New Roman,serif" font-size="14.00">2</text>
</g>
<!-- operator_2dd69d0&#45;&gt;if_2dd6890 -->
<g id="edge22" class="edge"><title>operator_2dd69d0&#45;&gt;if_2dd6890</title>
<path fill="none" stroke="black" stroke-dasharray="1,5" d="M350.155,-871.263C357.427,-877.608 366.007,-886.715 370,-897 374.826,-909.429 373.559,-914.15 370,-927 368.607,-932.028 366.279,-937.059 363.668,-941.675"/>
<polygon fill="black" stroke="black" points="360.514,-940.113 358.121,-950.434 366.428,-943.858 360.514,-940.113"/>
<text text-anchor="middle" x="385.5" y="-908.3" font-family="Times New Roman,serif" font-size="14.00">[22]</text>
</g>
<!-- constant_2dd6930 -->
<g id="node18" class="node"><title>constant_2dd6930</title>
<ellipse fill="none" stroke="black" cx="270" cy="-963" rx="18" ry="18"/>
<text text-anchor="middle" x="270" y="-959.3" font-family="Times New Roman,serif" font-size="14.00">2</text>
</g>
<!-- operator_2dd69d0&#45;&gt;constant_2dd6930 -->
<g id="edge24" class="edge"><title>operator_2dd69d0&#45;&gt;constant_2dd6930</title>
<path fill="none" stroke="black" stroke-dasharray="1,5" d="M329.762,-873.975C325.123,-880.729 319.227,-889.328 314,-897 304.492,-910.956 293.879,-926.631 285.458,-939.092"/>
<polygon fill="black" stroke="black" points="282.458,-937.28 279.762,-947.526 288.259,-941.198 282.458,-937.28"/>
<text text-anchor="middle" x="325.5" y="-908.3" font-family="Times New Roman,serif" font-size="14.00">[24]</text>
</g>
<!-- input_2de1170 -->
<g id="node19" class="node"><title>input_2de1170</title>
<polygon fill="none" stroke="black" points="353,-756 317,-756 317,-720 353,-720 353,-756"/>
<text text-anchor="middle" x="335" y="-734.3" font-family="Times New Roman,serif" font-size="14.00">I</text>
</g>
<!-- operator_2dd69d0&#45;&gt;input_2de1170 -->
<g id="edge26" class="edge"><title>operator_2dd69d0&#45;&gt;input_2de1170</title>
<path fill="none" stroke="black" d="M337.583,-843.175C337.089,-823.241 336.259,-789.761 335.673,-766.144"/>
<polygon fill="black" stroke="black" points="339.17,-765.982 335.423,-756.072 332.172,-766.155 339.17,-765.982"/>
<text text-anchor="middle" x="349.5" y="-813.8" font-family="Times New Roman,serif" font-size="14.00">[26]</text>
<text text-anchor="middle" x="349.5" y="-798.8" font-family="Times New Roman,serif" font-size="14.00">1</text>
</g>
<!-- constant_2dd6930&#45;&gt;operator_2dd69d0 -->
<g id="edge25" class="edge"><title>constant_2dd6930&#45;&gt;operator_2dd69d0</title>
<path fill="none" stroke="black" d="M264.811,-945.761C261.375,-931.776 258.978,-911.598 268,-897 276.822,-882.726 293.423,-874.078 308.245,-868.951"/>
<polygon fill="black" stroke="black" points="309.564,-872.208 318.104,-865.938 307.518,-865.513 309.564,-872.208"/>
<text text-anchor="middle" x="279.5" y="-915.8" font-family="Times New Roman,serif" font-size="14.00">[25]</text>
<text text-anchor="middle" x="279.5" y="-900.8" font-family="Times New Roman,serif" font-size="14.00">2</text>
</g>
<!-- if_2de1190 -->
<g id="node20" class="node"><title>if_2de1190</title>
<polygon fill="none" stroke="black" points="305,-648 274.835,-630 305,-612 335.165,-630 305,-648"/>
<text text-anchor="middle" x="305" y="-626.3" font-family="Times New Roman,serif" font-size="14.00">&lt;=</text>
</g>
<!-- input_2de1170&#45;&gt;if_2de1190 -->
<g id="edge27" class="edge"><title>input_2de1170&#45;&gt;if_2de1190</title>
<path fill="none" stroke="black" d="M326.202,-719.873C323.595,-714.284 320.926,-707.978 319,-702 317.592,-697.631 313.23,-675.115 309.745,-656.593"/>
<polygon fill="black" stroke="black" points="313.152,-655.772 307.873,-646.586 306.271,-657.059 313.152,-655.772"/>
<text text-anchor="middle" x="330.5" y="-687.8" font-family="Times New Roman,serif" font-size="14.00">[27]</text>
<text text-anchor="middle" x="330.5" y="-672.8" font-family="Times New Roman,serif" font-size="14.00">1</text>
</g>
<!-- constant_2de11d0 -->
<g id="node21" class="node"><title>constant_2de11d0</title>
<ellipse fill="none" stroke="black" cx="260" cy="-738" rx="18" ry="18"/>
<text text-anchor="middle" x="260" y="-734.3" font-family="Times New Roman,serif" font-size="14.00">2</text>
</g>
<!-- if_2de1190&#45;&gt;constant_2de11d0 -->
<g id="edge28" class="edge"><title>if_2de1190&#45;&gt;constant_2de11d0</title>
<path fill="none" stroke="black" stroke-dasharray="1,5" d="M294.802,-642.189C290.994,-646.821 286.896,-652.411 284,-658 275.482,-674.443 269.449,-694.408 265.562,-710.154"/>
<polygon fill="black" stroke="black" points="262.062,-709.753 263.21,-720.285 268.881,-711.336 262.062,-709.753"/>
<text text-anchor="middle" x="295.5" y="-680.3" font-family="Times New Roman,serif" font-size="14.00">[28]</text>
</g>
<!-- constant_2de1210 -->
<g id="node22" class="node"><title>constant_2de1210</title>
<ellipse fill="none" stroke="black" cx="321" cy="-528" rx="18" ry="18"/>
<text text-anchor="middle" x="321" y="-524.3" font-family="Times New Roman,serif" font-size="14.00">1</text>
</g>
<!-- if_2de1190&#45;&gt;constant_2de1210 -->
<g id="edge30" class="edge"><title>if_2de1190&#45;&gt;constant_2de1210</title>
<path fill="none" stroke="black" d="M299.235,-615.246C294.472,-601.873 289.335,-581.127 295,-564 296.68,-558.92 299.415,-553.977 302.494,-549.482"/>
<polygon fill="black" stroke="black" points="305.33,-551.535 308.651,-541.474 299.781,-547.268 305.33,-551.535"/>
<text text-anchor="middle" x="306.5" y="-582.8" font-family="Times New Roman,serif" font-size="14.00">[30]</text>
<text text-anchor="middle" x="306.5" y="-567.8" font-family="Times New Roman,serif" font-size="14.00">1</text>
</g>
<!-- constant_2de11d0&#45;&gt;if_2de1190 -->
<g id="edge29" class="edge"><title>constant_2de11d0&#45;&gt;if_2de1190</title>
<path fill="none" stroke="black" d="M250.342,-722.712C240.322,-705.931 227.82,-677.865 241,-658 248.032,-647.402 260.132,-640.953 271.932,-637.034"/>
<polygon fill="black" stroke="black" points="272.975,-640.377 281.655,-634.302 271.081,-633.638 272.975,-640.377"/>
<text text-anchor="middle" x="252.5" y="-687.8" font-family="Times New Roman,serif" font-size="14.00">[29]</text>
<text text-anchor="middle" x="252.5" y="-672.8" font-family="Times New Roman,serif" font-size="14.00">2</text>
</g>
<!-- output_2de1250 -->
<g id="node23" class="node"><title>output_2de1250</title>
<polygon fill="none" stroke="black" points="352,-444 316,-444 316,-408 352,-408 352,-444"/>
<text text-anchor="middle" x="334" y="-422.3" font-family="Times New Roman,serif" font-size="14.00">O</text>
</g>
<!-- constant_2de1210&#45;&gt;output_2de1250 -->
<g id="edge31" class="edge"><title>constant_2de1210&#45;&gt;output_2de1250</title>
<path fill="none" stroke="black" d="M316.433,-510.465C313.487,-497.182 310.9,-478.147 315,-462 315.758,-459.014 316.828,-456.007 318.079,-453.076"/>
<polygon fill="black" stroke="black" points="321.224,-454.612 322.525,-444.098 314.951,-451.505 321.224,-454.612"/>
<text text-anchor="middle" x="326.5" y="-480.8" font-family="Times New Roman,serif" font-size="14.00">[31]</text>
<text text-anchor="middle" x="326.5" y="-465.8" font-family="Times New Roman,serif" font-size="14.00">1</text>
</g>
<!-- output_2de1250&#45;&gt;operator_2dd6990 -->
<g id="edge32" class="edge"><title>output_2de1250&#45;&gt;operator_2dd6990</title>
<path fill="none" stroke="black" d="M338.703,-407.581C343.048,-391.49 349.546,-367.424 354.407,-349.417"/>
<polygon fill="black" stroke="black" points="357.825,-350.188 357.052,-339.621 351.067,-348.363 357.825,-350.188"/>
<text text-anchor="middle" x="363.5" y="-378.8" font-family="Times New Roman,serif" font-size="14.00">[32]</text>
<text text-anchor="middle" x="363.5" y="-363.8" font-family="Times New Roman,serif" font-size="14.00">1</text>
</g>
<!-- operator_8c45d0 -->
<g id="node25" class="node"><title>operator_8c45d0</title>
<polygon fill="none" stroke="black" points="175,-138 148,-120 175,-102 202,-120 175,-138"/>
<text text-anchor="middle" x="175" y="-116.3" font-family="Times New Roman,serif" font-size="14.00">+</text>
</g>
<!-- output_2dd68f0&#45;&gt;operator_8c45d0 -->
<g id="edge34" class="edge"><title>output_2dd68f0&#45;&gt;operator_8c45d0</title>
<path fill="none" stroke="black" d="M248.497,-203.581C232.518,-185.627 207.702,-157.744 191.4,-139.427"/>
<polygon fill="black" stroke="black" points="193.835,-136.898 184.572,-131.755 188.606,-141.552 193.835,-136.898"/>
<text text-anchor="middle" x="244.5" y="-174.8" font-family="Times New Roman,serif" font-size="14.00">[34]</text>
<text text-anchor="middle" x="244.5" y="-159.8" font-family="Times New Roman,serif" font-size="14.00">2</text>
</g>
<!-- operator_8c45d0&#45;&gt;operator_8c45b0 -->
<g id="edge35" class="edge"><title>operator_8c45d0&#45;&gt;operator_8c45b0</title>
<path fill="none" stroke="black" stroke-dasharray="1,5" d="M175,-138.343C175,-158.286 175,-192.007 175,-221 175,-1066 175,-1066 175,-1066 175,-1098.21 175,-1135.23 175,-1159.76"/>
<polygon fill="black" stroke="black" points="171.5,-1159.77 175,-1169.77 178.5,-1159.77 171.5,-1159.77"/>
<text text-anchor="middle" x="186.5" y="-626.3" font-family="Times New Roman,serif" font-size="14.00">[35]</text>
</g>
<!-- output_2da4ff0 -->
<g id="node33" class="node"><title>output_2da4ff0</title>
<polygon fill="none" stroke="black" points="193,-36 157,-36 157,-0 193,-0 193,-36"/>
<text text-anchor="middle" x="175" y="-14.3" font-family="Times New Roman,serif" font-size="14.00">O</text>
</g>
<!-- operator_8c45d0&#45;&gt;output_2da4ff0 -->
<g id="edge47" class="edge"><title>operator_8c45d0&#45;&gt;output_2da4ff0</title>
<path fill="none" stroke="black" d="M175,-101.581C175,-86.3816 175,-64.0669 175,-46.4644"/>
<polygon fill="black" stroke="black" points="178.5,-46.219 175,-36.2191 171.5,-46.2191 178.5,-46.219"/>
<text text-anchor="middle" x="186.5" y="-72.8" font-family="Times New Roman,serif" font-size="14.00">[47]</text>
<text text-anchor="middle" x="186.5" y="-57.8" font-family="Times New Roman,serif" font-size="14.00">3</text>
</g>
<!-- operator_8c45b0&#45;&gt;if_8aef30 -->
<g id="edge36" class="edge"><title>operator_8c45b0&#45;&gt;if_8aef30</title>
<path fill="none" stroke="black" stroke-dasharray="1,5" d="M193.554,-1193.93C209.299,-1199.01 231.432,-1208.43 245,-1224 254.572,-1234.99 260.02,-1250.31 263.099,-1263.32"/>
<polygon fill="black" stroke="black" points="259.671,-1264.03 265.094,-1273.13 266.531,-1262.63 259.671,-1264.03"/>
<text text-anchor="middle" x="272.5" y="-1235.3" font-family="Times New Roman,serif" font-size="14.00">[36]</text>
</g>
<!-- constant_2dd6670 -->
<g id="node27" class="node"><title>constant_2dd6670</title>
<ellipse fill="none" stroke="black" cx="152" cy="-1290" rx="18" ry="18"/>
<text text-anchor="middle" x="152" y="-1286.3" font-family="Times New Roman,serif" font-size="14.00">2</text>
</g>
<!-- operator_8c45b0&#45;&gt;constant_2dd6670 -->
<g id="edge38" class="edge"><title>operator_8c45b0&#45;&gt;constant_2dd6670</title>
<path fill="none" stroke="black" stroke-dasharray="1,5" d="M159.85,-1196.13C149.345,-1201.99 136.175,-1211.37 130,-1224 124.142,-1235.98 126.308,-1241.19 130,-1254 131.287,-1258.47 133.33,-1262.91 135.665,-1267.06"/>
<polygon fill="black" stroke="black" points="132.749,-1269 141.061,-1275.57 138.66,-1265.25 132.749,-1269"/>
<text text-anchor="middle" x="141.5" y="-1235.3" font-family="Times New Roman,serif" font-size="14.00">[38]</text>
</g>
<!-- input_2de15b0 -->
<g id="node28" class="node"><title>input_2de15b0</title>
<polygon fill="none" stroke="black" points="146,-1083 110,-1083 110,-1047 146,-1047 146,-1083"/>
<text text-anchor="middle" x="128" y="-1061.3" font-family="Times New Roman,serif" font-size="14.00">I</text>
</g>
<!-- operator_8c45b0&#45;&gt;input_2de15b0 -->
<g id="edge40" class="edge"><title>operator_8c45b0&#45;&gt;input_2de15b0</title>
<path fill="none" stroke="black" d="M162.147,-1178.5C153.791,-1172.23 143.466,-1162.91 138,-1152 128.911,-1133.86 126.627,-1110.94 126.498,-1093.32"/>
<polygon fill="black" stroke="black" points="130.001,-1093.18 126.655,-1083.13 123.002,-1093.08 130.001,-1093.18"/>
<text text-anchor="middle" x="149.5" y="-1140.8" font-family="Times New Roman,serif" font-size="14.00">[40]</text>
<text text-anchor="middle" x="149.5" y="-1125.8" font-family="Times New Roman,serif" font-size="14.00">2</text>
</g>
<!-- constant_2dd6670&#45;&gt;operator_8c45b0 -->
<g id="edge39" class="edge"><title>constant_2dd6670&#45;&gt;operator_8c45b0</title>
<path fill="none" stroke="black" d="M155.902,-1272.04C159.587,-1256.01 165.157,-1231.79 169.332,-1213.64"/>
<polygon fill="black" stroke="black" points="172.774,-1214.29 171.605,-1203.76 165.952,-1212.72 172.774,-1214.29"/>
<text text-anchor="middle" x="178.5" y="-1242.8" font-family="Times New Roman,serif" font-size="14.00">[39]</text>
<text text-anchor="middle" x="178.5" y="-1227.8" font-family="Times New Roman,serif" font-size="14.00">2</text>
</g>
<!-- if_2de15d0 -->
<g id="node29" class="node"><title>if_2de15d0</title>
<polygon fill="none" stroke="black" points="99,-981 68.8347,-963 99,-945 129.165,-963 99,-981"/>
<text text-anchor="middle" x="99" y="-959.3" font-family="Times New Roman,serif" font-size="14.00">&lt;=</text>
</g>
<!-- input_2de15b0&#45;&gt;if_2de15d0 -->
<g id="edge41" class="edge"><title>input_2de15b0&#45;&gt;if_2de15d0</title>
<path fill="none" stroke="black" d="M122.949,-1046.58C118.282,-1030.49 111.303,-1006.42 106.081,-988.417"/>
<polygon fill="black" stroke="black" points="109.387,-987.251 103.24,-978.621 102.664,-989.2 109.387,-987.251"/>
<text text-anchor="middle" x="129.5" y="-1017.8" font-family="Times New Roman,serif" font-size="14.00">[41]</text>
<text text-anchor="middle" x="129.5" y="-1002.8" font-family="Times New Roman,serif" font-size="14.00">2</text>
</g>
<!-- constant_2de1610 -->
<g id="node30" class="node"><title>constant_2de1610</title>
<ellipse fill="none" stroke="black" cx="54" cy="-1065" rx="18" ry="18"/>
<text text-anchor="middle" x="54" y="-1061.3" font-family="Times New Roman,serif" font-size="14.00">2</text>
</g>
<!-- if_2de15d0&#45;&gt;constant_2de1610 -->
<g id="edge42" class="edge"><title>if_2de15d0&#45;&gt;constant_2de1610</title>
<path fill="none" stroke="black" stroke-dasharray="1,5" d="M92.7404,-977.616C89.7742,-984.088 86.19,-991.937 83,-999 77.0794,-1012.11 70.547,-1026.74 65.1834,-1038.79"/>
<polygon fill="black" stroke="black" points="61.8552,-1037.66 60.9919,-1048.22 68.2518,-1040.5 61.8552,-1037.66"/>
<text text-anchor="middle" x="94.5" y="-1010.3" font-family="Times New Roman,serif" font-size="14.00">[42]</text>
</g>
<!-- constant_2de1650 -->
<g id="node31" class="node"><title>constant_2de1650</title>
<ellipse fill="none" stroke="black" cx="106" cy="-861" rx="18" ry="18"/>
<text text-anchor="middle" x="106" y="-857.3" font-family="Times New Roman,serif" font-size="14.00">1</text>
</g>
<!-- if_2de15d0&#45;&gt;constant_2de1650 -->
<g id="edge44" class="edge"><title>if_2de15d0&#45;&gt;constant_2de1650</title>
<path fill="none" stroke="black" d="M100.156,-945.487C101.222,-930.255 102.825,-907.351 104.083,-889.383"/>
<polygon fill="black" stroke="black" points="107.588,-889.428 104.795,-879.208 100.606,-888.94 107.588,-889.428"/>
<text text-anchor="middle" x="115.5" y="-915.8" font-family="Times New Roman,serif" font-size="14.00">[44]</text>
<text text-anchor="middle" x="115.5" y="-900.8" font-family="Times New Roman,serif" font-size="14.00">2</text>
</g>
<!-- constant_2de1610&#45;&gt;if_2de15d0 -->
<g id="edge43" class="edge"><title>constant_2de1610&#45;&gt;if_2de15d0</title>
<path fill="none" stroke="black" d="M46.4728,-1048.61C40.8764,-1034.8 35.5389,-1014.41 44,-999 49.9816,-988.103 60.9538,-980.115 71.5336,-974.544"/>
<polygon fill="black" stroke="black" points="73.0509,-977.698 80.5947,-970.259 70.0582,-971.37 73.0509,-977.698"/>
<text text-anchor="middle" x="55.5" y="-1017.8" font-family="Times New Roman,serif" font-size="14.00">[43]</text>
<text text-anchor="middle" x="55.5" y="-1002.8" font-family="Times New Roman,serif" font-size="14.00">2</text>
</g>
<!-- output_2de1690 -->
<g id="node32" class="node"><title>output_2de1690</title>
<polygon fill="none" stroke="black" points="139,-702 103,-702 103,-666 139,-666 139,-702"/>
<text text-anchor="middle" x="121" y="-680.3" font-family="Times New Roman,serif" font-size="14.00">O</text>
</g>
<!-- constant_2de1650&#45;&gt;output_2de1690 -->
<g id="edge45" class="edge"><title>constant_2de1650&#45;&gt;output_2de1690</title>
<path fill="none" stroke="black" d="M107.466,-842.902C110.064,-812.582 115.501,-749.156 118.635,-712.588"/>
<polygon fill="black" stroke="black" points="122.162,-712.43 119.528,-702.168 115.187,-711.832 122.162,-712.43"/>
<text text-anchor="middle" x="123.5" y="-813.8" font-family="Times New Roman,serif" font-size="14.00">[45]</text>
<text text-anchor="middle" x="123.5" y="-798.8" font-family="Times New Roman,serif" font-size="14.00">1</text>
</g>
<!-- output_2de1690&#45;&gt;operator_8c45d0 -->
<g id="edge46" class="edge"><title>output_2de1690&#45;&gt;operator_8c45d0</title>
<path fill="none" stroke="black" d="M121.536,-665.871C122.128,-645.432 123,-610.226 123,-580 123,-580 123,-580 123,-221 123,-189.777 143.202,-158.627 158.422,-139.589"/>
<polygon fill="black" stroke="black" points="161.254,-141.657 164.974,-131.737 155.88,-137.172 161.254,-141.657"/>
<text text-anchor="middle" x="134.5" y="-429.8" font-family="Times New Roman,serif" font-size="14.00">[46]</text>
<text text-anchor="middle" x="134.5" y="-414.8" font-family="Times New Roman,serif" font-size="14.00">1</text>
</g>
</g>
</svg>
