<?xml version="1.0" encoding="UTF-8" standalone="no"?>
<!DOCTYPE svg PUBLIC "-//W3C//DTD SVG 1.1//EN"
 "http://www.w3.org/Graphics/SVG/1.1/DTD/svg11.dtd">
<!-- Generated by graphviz version 2.38.0 (20140413.2041)
 -->
<!-- Title: %3 Pages: 1 -->
<svg width="284pt" height="452pt"
 viewBox="0.00 0.00 283.79 452.00" xmlns="http://www.w3.org/2000/svg" xmlns:xlink="http://www.w3.org/1999/xlink">
<g id="graph0" class="graph" transform="scale(1 1) rotate(0) translate(4 448)">
<title>%3</title>
<polygon fill="white" stroke="none" points="-4,4 -4,-448 279.792,-448 279.792,4 -4,4"/>
<!-- c6eef0 -->
<g id="node1" class="node"><title>c6eef0</title>
<polygon fill="none" stroke="black" points="126.792,-444 90.7918,-444 90.7918,-408 126.792,-408 126.792,-444"/>
<text text-anchor="middle" x="108.792" y="-422.3" font-family="Times New Roman,serif" font-size="14.00">I</text>
</g>
<!-- c6ef30 -->
<g id="node2" class="node"><title>c6ef30</title>
<polygon fill="none" stroke="black" points="147.792,-342 117.627,-324 147.792,-306 177.957,-324 147.792,-342"/>
<text text-anchor="middle" x="147.792" y="-320.3" font-family="Times New Roman,serif" font-size="14.00">&lt;=</text>
</g>
<!-- c6eef0&#45;&gt;c6ef30 -->
<g id="edge1" class="edge"><title>c6eef0&#45;&gt;c6ef30</title>
<path fill="none" stroke="black" d="M110.953,-407.885C113.068,-394.445 116.991,-375.481 123.792,-360 126.031,-354.903 129.039,-349.766 132.168,-345.056"/>
<polygon fill="black" stroke="black" points="135.206,-346.823 138.16,-336.649 129.506,-342.76 135.206,-346.823"/>
<text text-anchor="middle" x="131.792" y="-378.8" font-family="Times New Roman,serif" font-size="14.00">[1]</text>
<text text-anchor="middle" x="131.792" y="-363.8" font-family="Times New Roman,serif" font-size="14.00">5</text>
</g>
<!-- c85610 -->
<g id="node3" class="node"><title>c85610</title>
<ellipse fill="none" stroke="black" cx="174.792" cy="-426" rx="18" ry="18"/>
<text text-anchor="middle" x="174.792" y="-422.3" font-family="Times New Roman,serif" font-size="14.00">1</text>
</g>
<!-- c6ef30&#45;&gt;c85610 -->
<g id="edge2" class="edge"><title>c6ef30&#45;&gt;c85610</title>
<path fill="none" stroke="black" stroke-dasharray="1,5" d="M145.395,-340.69C143.952,-354.147 143.315,-373.862 148.792,-390 150.511,-395.067 153.263,-400.004 156.347,-404.497"/>
<polygon fill="black" stroke="black" points="153.633,-406.709 162.501,-412.507 159.184,-402.444 153.633,-406.709"/>
<text text-anchor="middle" x="156.792" y="-371.3" font-family="Times New Roman,serif" font-size="14.00">[2]</text>
</g>
<!-- c6ef50 -->
<g id="node4" class="node"><title>c6ef50</title>
<polygon fill="none" stroke="black" points="235.792,-240 208.792,-222 235.792,-204 262.792,-222 235.792,-240"/>
<text text-anchor="middle" x="235.792" y="-218.3" font-family="Times New Roman,serif" font-size="14.00">&#45;</text>
</g>
<!-- c6ef30&#45;&gt;c6ef50 -->
<g id="edge4" class="edge"><title>c6ef30&#45;&gt;c6ef50</title>
<path fill="none" stroke="black" d="M157.887,-311.529C172.965,-294.395 201.521,-261.944 219.556,-241.45"/>
<polygon fill="black" stroke="black" points="222.369,-243.551 226.348,-233.731 217.114,-238.926 222.369,-243.551"/>
<text text-anchor="middle" x="212.792" y="-276.8" font-family="Times New Roman,serif" font-size="14.00">[4]</text>
<text text-anchor="middle" x="212.792" y="-261.8" font-family="Times New Roman,serif" font-size="14.00">5</text>
</g>
<!-- c85570 -->
<g id="node7" class="node"><title>c85570</title>
<polygon fill="none" stroke="black" points="81.7918,-240 54.7918,-222 81.7918,-204 108.792,-222 81.7918,-240"/>
<text text-anchor="middle" x="81.7918" y="-218.3" font-family="Times New Roman,serif" font-size="14.00">&#45;</text>
</g>
<!-- c6ef30&#45;&gt;c85570 -->
<g id="edge10" class="edge"><title>c6ef30&#45;&gt;c85570</title>
<path fill="none" stroke="black" d="M140.143,-310.402C132.061,-297.206 118.844,-275.942 106.792,-258 103.461,-253.041 99.7703,-247.763 96.2702,-242.851"/>
<polygon fill="black" stroke="black" points="98.9774,-240.621 90.2946,-234.549 93.2962,-244.71 98.9774,-240.621"/>
<text text-anchor="middle" x="136.292" y="-276.8" font-family="Times New Roman,serif" font-size="14.00">[10]</text>
<text text-anchor="middle" x="136.292" y="-261.8" font-family="Times New Roman,serif" font-size="14.00">5</text>
</g>
<!-- c85610&#45;&gt;c6ef30 -->
<g id="edge3" class="edge"><title>c85610&#45;&gt;c6ef30</title>
<path fill="none" stroke="black" d="M173.563,-407.85C172.276,-394.558 169.722,-375.804 164.792,-360 163.456,-355.72 161.671,-351.306 159.758,-347.116"/>
<polygon fill="black" stroke="black" points="162.78,-345.332 155.216,-337.913 156.503,-348.429 162.78,-345.332"/>
<text text-anchor="middle" x="178.792" y="-378.8" font-family="Times New Roman,serif" font-size="14.00">[3]</text>
<text text-anchor="middle" x="178.792" y="-363.8" font-family="Times New Roman,serif" font-size="14.00">1</text>
</g>
<!-- 2e7cc70 -->
<g id="node5" class="node"><title>2e7cc70</title>
<ellipse fill="none" stroke="black" cx="257.792" cy="-324" rx="18" ry="18"/>
<text text-anchor="middle" x="257.792" y="-320.3" font-family="Times New Roman,serif" font-size="14.00">1</text>
</g>
<!-- c6ef50&#45;&gt;2e7cc70 -->
<g id="edge5" class="edge"><title>c6ef50&#45;&gt;2e7cc70</title>
<path fill="none" stroke="black" stroke-dasharray="1,5" d="M244.381,-234.658C248.67,-241.175 253.436,-249.648 255.792,-258 259.195,-270.063 260.022,-283.887 259.868,-295.677"/>
<polygon fill="black" stroke="black" points="256.365,-295.701 259.497,-305.823 263.361,-295.958 256.365,-295.701"/>
<text text-anchor="middle" x="267.792" y="-269.3" font-family="Times New Roman,serif" font-size="14.00">[5]</text>
</g>
<!-- c855d0 -->
<g id="node6" class="node"><title>c855d0</title>
<polygon fill="none" stroke="black" points="120.792,-138 93.7918,-120 120.792,-102 147.792,-120 120.792,-138"/>
<text text-anchor="middle" x="120.792" y="-116.3" font-family="Times New Roman,serif" font-size="14.00">+</text>
</g>
<!-- c6ef50&#45;&gt;c855d0 -->
<g id="edge7" class="edge"><title>c6ef50&#45;&gt;c855d0</title>
<path fill="none" stroke="black" d="M224.345,-211.046C204.626,-193.9 164.056,-158.621 139.965,-137.673"/>
<polygon fill="black" stroke="black" points="142.035,-134.834 132.193,-130.914 137.442,-140.117 142.035,-134.834"/>
<text text-anchor="middle" x="202.792" y="-174.8" font-family="Times New Roman,serif" font-size="14.00">[7]</text>
<text text-anchor="middle" x="202.792" y="-159.8" font-family="Times New Roman,serif" font-size="14.00">4</text>
</g>
<!-- 2e7cc70&#45;&gt;c6ef50 -->
<g id="edge6" class="edge"><title>2e7cc70&#45;&gt;c6ef50</title>
<path fill="none" stroke="black" d="M246.853,-309.568C242.507,-303.389 238.018,-295.724 235.792,-288 232.179,-275.464 231.829,-260.994 232.532,-248.894"/>
<polygon fill="black" stroke="black" points="236.05,-248.832 233.41,-238.571 229.075,-248.238 236.05,-248.832"/>
<text text-anchor="middle" x="243.792" y="-276.8" font-family="Times New Roman,serif" font-size="14.00">[6]</text>
<text text-anchor="middle" x="243.792" y="-261.8" font-family="Times New Roman,serif" font-size="14.00">1</text>
</g>
<!-- c855d0&#45;&gt;c85570 -->
<g id="edge8" class="edge"><title>c855d0&#45;&gt;c85570</title>
<path fill="none" stroke="black" stroke-dasharray="1,5" d="M117.825,-136.104C114.905,-149.534 109.856,-169.536 102.792,-186 100.735,-190.795 98.124,-195.726 95.4481,-200.32"/>
<polygon fill="black" stroke="black" points="92.2905,-198.772 90.0205,-209.121 98.2487,-202.446 92.2905,-198.772"/>
<text text-anchor="middle" x="121.792" y="-167.3" font-family="Times New Roman,serif" font-size="14.00">[8]</text>
</g>
<!-- 2f07ff0 -->
<g id="node9" class="node"><title>2f07ff0</title>
<polygon fill="none" stroke="black" points="138.792,-36 102.792,-36 102.792,-0 138.792,-0 138.792,-36"/>
<text text-anchor="middle" x="120.792" y="-14.3" font-family="Times New Roman,serif" font-size="14.00">O</text>
</g>
<!-- c855d0&#45;&gt;2f07ff0 -->
<g id="edge14" class="edge"><title>c855d0&#45;&gt;2f07ff0</title>
<path fill="none" stroke="black" d="M120.792,-101.581C120.792,-86.3816 120.792,-64.0669 120.792,-46.4644"/>
<polygon fill="black" stroke="black" points="124.292,-46.219 120.792,-36.2191 117.292,-46.2191 124.292,-46.219"/>
<text text-anchor="middle" x="132.292" y="-72.8" font-family="Times New Roman,serif" font-size="14.00">[14]</text>
<text text-anchor="middle" x="132.292" y="-57.8" font-family="Times New Roman,serif" font-size="14.00">7</text>
</g>
<!-- c85570&#45;&gt;c6ef30 -->
<g id="edge9" class="edge"><title>c85570&#45;&gt;c6ef30</title>
<path fill="none" stroke="black" stroke-dasharray="1,5" d="M80.3507,-239.29C79.922,-253.307 81.3186,-273.505 90.7918,-288 97.8181,-298.751 109.413,-306.746 120.316,-312.358"/>
<polygon fill="black" stroke="black" points="119.047,-315.628 129.589,-316.687 122.008,-309.285 119.047,-315.628"/>
<text text-anchor="middle" x="98.7918" y="-269.3" font-family="Times New Roman,serif" font-size="14.00">[9]</text>
</g>
<!-- c85570&#45;&gt;c855d0 -->
<g id="edge13" class="edge"><title>c85570&#45;&gt;c855d0</title>
<path fill="none" stroke="black" d="M76.5325,-207.305C72.1607,-193.607 67.8254,-172.289 75.7918,-156 80.3264,-146.728 88.6337,-139.203 96.8876,-133.539"/>
<polygon fill="black" stroke="black" points="98.9748,-136.364 105.642,-128.13 95.2951,-130.409 98.9748,-136.364"/>
<text text-anchor="middle" x="87.2918" y="-174.8" font-family="Times New Roman,serif" font-size="14.00">[13]</text>
<text text-anchor="middle" x="87.2918" y="-159.8" font-family="Times New Roman,serif" font-size="14.00">3</text>
</g>
<!-- 2f07ed0 -->
<g id="node8" class="node"><title>2f07ed0</title>
<ellipse fill="none" stroke="black" cx="20.7918" cy="-324" rx="18" ry="18"/>
<text text-anchor="middle" x="20.7918" y="-320.3" font-family="Times New Roman,serif" font-size="14.00">2</text>
</g>
<!-- c85570&#45;&gt;2f07ed0 -->
<g id="edge11" class="edge"><title>c85570&#45;&gt;2f07ed0</title>
<path fill="none" stroke="black" stroke-dasharray="1,5" d="M69.3908,-232.246C61.4449,-238.713 51.4166,-247.964 44.7918,-258 37.0777,-269.687 31.4166,-284.185 27.5366,-296.521"/>
<polygon fill="black" stroke="black" points="24.1344,-295.686 24.6902,-306.266 30.8536,-297.648 24.1344,-295.686"/>
<text text-anchor="middle" x="56.2918" y="-269.3" font-family="Times New Roman,serif" font-size="14.00">[11]</text>
</g>
<!-- 2f07ed0&#45;&gt;c85570 -->
<g id="edge12" class="edge"><title>2f07ed0&#45;&gt;c85570</title>
<path fill="none" stroke="black" d="M11.1824,-308.504C3.27549,-294.58 -5.14915,-273.438 4.79182,-258 14.9304,-242.255 34.0768,-233.511 50.74,-228.701"/>
<polygon fill="black" stroke="black" points="51.8537,-232.029 60.6917,-226.186 50.1389,-225.243 51.8537,-232.029"/>
<text text-anchor="middle" x="16.2918" y="-276.8" font-family="Times New Roman,serif" font-size="14.00">[12]</text>
<text text-anchor="middle" x="16.2918" y="-261.8" font-family="Times New Roman,serif" font-size="14.00">2</text>
</g>
<!-- c855f0 -->
<g id="node10" class="node"><title>c855f0</title>
<ellipse fill="none" stroke="black" cx="168.792" cy="-222" rx="18" ry="18"/>
<text text-anchor="middle" x="168.792" y="-218.3" font-family="Times New Roman,serif" font-size="14.00">1</text>
</g>
<!-- c855f0&#45;&gt;c6ef30 -->
<g id="edge15" class="edge"><title>c855f0&#45;&gt;c6ef30</title>
<path fill="none" stroke="black" d="M165.292,-239.667C161.302,-258.665 154.837,-289.454 150.981,-307.812"/>
</g>
<!-- 2ead030 -->
<g id="node11" class="node"><title>2ead030</title>
<polygon fill="none" stroke="black" points="201.792,-138 165.792,-138 165.792,-102 201.792,-102 201.792,-138"/>
<text text-anchor="middle" x="183.792" y="-116.3" font-family="Times New Roman,serif" font-size="14.00">O</text>
</g>
<!-- 2ead030&#45;&gt;c855f0 -->
<g id="edge16" class="edge"><title>2ead030&#45;&gt;c855f0</title>
<path fill="none" stroke="black" d="M181.235,-138.047C178.472,-156.468 174.095,-185.648 171.336,-204.036"/>
</g>
</g>
</svg>
