<?xml version="1.0" standalone="no"?>
<!DOCTYPE svg PUBLIC "-//W3C//DTD SVG 20010904//EN"
 "http://www.w3.org/TR/2001/REC-SVG-20010904/DTD/svg10.dtd">
<svg version="1.0" xmlns="http://www.w3.org/2000/svg"
 width="299pt" height="452pt" viewBox="0 0 1047.000000 1280.000000"
 preserveAspectRatio="xMidYMid meet">
<metadata>
Created by potrace 1.15, written by Peter Selinger 2001-2017
</metadata>
<g transform="translate(0.000000,1280.000000) scale(0.100000,-0.100000)"
fill="#000000" stroke="none">
<path d="M4657 11642 c-16 -3 -17 -50 -17 -593 l0 -589 290 0 290 0 0 -535 0
-535 -24 -12 c-31 -13 -50 -58 -42 -95 6 -27 -11 -46 -250 -286 l-256 -257
-248 0 c-237 0 -249 1 -255 19 -3 11 -21 28 -39 39 -25 15 -35 29 -41 58 -24
133 -124 279 -245 359 -212 141 -467 135 -686 -16 -122 -84 -234 -285 -234
-421 l0 -38 -240 0 -240 0 -40 40 -40 40 -2 247 -3 248 -590 0 -590 0 0 -590
0 -590 593 -3 592 -2 0 250 0 250 40 40 40 40 240 0 240 0 0 -38 c0 -58 27
-148 66 -222 145 -276 482 -393 764 -267 162 72 295 231 332 396 10 44 18 57
44 73 18 11 36 28 39 39 6 18 18 19 257 19 l250 0 109 -107 c108 -106 109
-107 102 -145 -7 -46 9 -81 43 -97 l24 -11 0 -247 0 -248 -547 -546 -548 -545
-58 1 -58 2 -115 114 -114 114 -263 -262 -262 -262 -43 6 c-36 5 -47 2 -67
-17 -14 -13 -25 -29 -25 -37 0 -10 -48 -13 -244 -13 l-243 0 -12 72 c-21 129
-94 272 -177 349 -50 47 -153 107 -222 131 -96 33 -278 33 -374 0 -182 -63
-328 -217 -384 -407 -12 -39 -18 -93 -18 -155 0 -330 261 -590 592 -590 163 0
300 57 417 175 89 88 137 182 162 313 l17 92 238 0 237 0 18 -30 c20 -34 49
-45 95 -36 30 6 48 -11 547 -512 l516 -517 -1 -58 -1 -58 -111 -113 c-62 -62
-112 -117 -112 -122 0 -5 246 -255 547 -556 l548 -548 1 -58 0 -57 -115 -118
-116 -117 293 -293 292 -292 0 -247 c0 -237 -1 -247 -20 -253 -11 -3 -27 -19
-37 -36 l-17 -29 -253 0 -253 0 0 -595 0 -595 593 2 592 3 0 590 0 590 -247 3
-248 2 -44 44 -45 44 0 238 0 239 294 295 295 295 -119 119 c-113 113 -119
120 -109 147 7 19 6 34 -2 50 -11 20 23 57 544 578 l556 556 -119 119 c-116
115 -119 120 -109 148 7 20 7 37 0 52 -9 21 29 62 511 543 l522 521 38 -5 c42
-6 82 14 92 47 6 20 12 20 248 18 l242 -3 7 -56 c31 -245 206 -443 449 -505
87 -22 241 -15 329 15 183 63 336 229 384 417 20 79 20 209 0 288 -53 207
-232 383 -440 432 -92 21 -235 15 -323 -15 -213 -73 -378 -278 -398 -493 l-6
-58 -243 0 c-235 0 -243 1 -249 20 -11 33 -50 53 -94 47 l-38 -5 -259 259
c-142 143 -262 259 -266 259 -4 0 -57 -50 -118 -111 l-111 -112 -60 -1 -59 -1
-549 550 -550 550 0 239 -1 239 30 19 c38 23 54 62 41 98 -8 25 -3 33 74 110
81 81 83 82 122 76 31 -6 44 -3 66 14 15 12 27 28 27 36 0 12 39 14 244 14
267 0 256 3 256 -60 0 -51 49 -187 90 -248 87 -129 228 -226 375 -257 132 -28
253 -12 384 50 94 45 214 161 258 250 54 107 67 161 68 275 0 116 -12 173 -58
265 -77 156 -202 260 -372 311 -81 24 -238 24 -320 0 -228 -68 -400 -269 -424
-496 l-6 -55 -245 -3 -245 -2 -16 29 c-19 32 -66 48 -97 32 -16 -8 -50 22
-248 220 l-229 229 3 49 c3 46 1 50 -32 76 l-36 27 3 526 2 527 293 3 292 2 0
590 0 590 -32 0 c-18 0 -279 1 -579 2 -300 2 -553 2 -562 0z m1143 -592 l0
-570 -567 2 -568 3 -3 568 -2 567 570 0 570 0 0 -570z m-3490 -1970 c6 -266 6
-271 -29 -292 -16 -8 -30 -27 -33 -41 -7 -34 17 -88 42 -94 18 -5 19 -16 22
-245 2 -167 0 -243 -8 -249 -7 -5 -238 -8 -565 -7 l-554 3 -3 560 c-1 308 0
565 2 570 2 7 199 10 562 10 l559 0 5 -215z m1386 174 c120 -47 213 -125 279
-233 52 -87 92 -221 65 -221 -20 0 -50 -45 -50 -75 0 -30 30 -75 50 -75 27 0
-17 -147 -68 -226 -109 -167 -282 -265 -476 -266 -107 -1 -172 15 -268 64
-271 140 -382 466 -254 743 125 269 447 398 722 289z m3494 -3 c326 -137 453
-517 273 -820 -73 -122 -220 -230 -358 -261 -64 -15 -196 -15 -260 0 -176 39
-334 180 -402 358 -34 89 -43 238 -19 331 59 232 249 404 474 429 101 11 212
-3 292 -37z m-1932 -22 c28 9 38 1 257 -219 215 -215 227 -229 221 -257 -4
-16 -3 -41 3 -55 9 -23 2 -32 -74 -108 -82 -82 -83 -82 -124 -75 -37 6 -44 4
-72 -25 -28 -28 -31 -35 -25 -72 l7 -42 -108 -108 -108 -108 -112 112 c-101
100 -110 113 -102 135 12 33 -13 90 -46 105 -18 8 -34 9 -53 1 -26 -9 -33 -4
-140 101 l-112 111 257 257 c230 230 259 255 279 248 12 -5 36 -5 52 -1z m-48
-1086 c0 -10 -242 -253 -252 -253 -5 0 -8 103 -8 228 0 228 0 229 23 240 20
10 32 1 130 -98 59 -60 107 -112 107 -117z m300 -26 l0 -232 -130 130 -130
130 112 112 c154 154 148 159 148 -140z m-136 -131 l136 -134 0 -1454 0 -1453
285 -285 c157 -157 285 -289 285 -295 0 -6 -114 -124 -253 -263 -233 -233
-255 -252 -277 -244 -14 5 -37 6 -51 2 -24 -7 -37 3 -140 106 -63 63 -118 114
-124 114 -5 0 -62 -52 -126 -116 -108 -108 -117 -114 -140 -104 -16 7 -32 8
-49 1 -23 -9 -42 7 -283 247 l-257 257 285 285 285 285 0 1454 0 1454 137 139
c75 76 140 138 144 138 4 0 68 -60 143 -134z m-444 -1588 l0 -1423 -285 285
-285 285 -115 -115 -115 -114 -59 -1 -60 -1 -253 253 -253 253 290 290 290
290 -115 115 -115 115 -1 58 0 57 535 538 c295 295 537 537 538 537 2 0 3
-640 3 -1422z m1676 293 l-1 -59 -114 -117 -113 -118 291 -291 291 -291 -252
-251 -253 -251 -62 1 -63 1 -113 113 -113 113 -279 -280 c-153 -154 -282 -278
-286 -275 -10 6 -12 2818 -3 2827 4 4 246 -234 539 -528 l532 -535 -1 -59z
m-4741 264 c187 -39 344 -175 415 -360 17 -46 24 -87 28 -175 4 -105 2 -122
-22 -195 -64 -193 -207 -325 -404 -376 -95 -24 -179 -24 -275 0 -122 32 -217
91 -297 186 -87 105 -130 224 -130 365 0 162 52 284 169 400 145 143 320 196
516 155z m6970 0 c301 -63 499 -357 444 -661 -30 -166 -154 -327 -311 -403
-169 -82 -334 -81 -504 4 -142 70 -233 177 -290 345 -29 85 -25 253 8 342 56
151 151 259 283 324 122 60 241 76 370 49z m-5234 -101 l106 -106 -5 -43 c-4
-37 -1 -47 23 -70 23 -24 32 -27 69 -22 l42 6 110 -110 109 -109 -283 -283
-282 -282 -253 253 -253 253 1 60 1 60 249 249 c138 138 252 250 255 250 2 0
53 -48 111 -106z m3633 -144 l249 -250 1 -60 1 -60 -252 -252 -252 -252 -32
29 c-135 129 -529 529 -527 536 2 4 50 56 107 113 93 95 106 104 132 99 67
-13 118 35 104 99 -7 29 0 38 101 139 60 60 111 109 114 109 3 0 117 -113 254
-250z m-2314 -1763 c0 -5 -125 -134 -278 -288 l-278 -278 -282 282 -282 282
110 112 c103 105 112 111 139 103 37 -10 89 14 97 47 4 13 4 37 0 54 -5 28 2
38 107 139 l112 109 278 -277 c152 -152 277 -281 277 -285z m1398 312 c-20
-58 42 -121 100 -101 25 9 34 3 140 -102 l112 -111 -282 -282 -283 -283 -282
282 -283 283 282 282 283 283 111 -111 c107 -106 112 -113 102 -140z m-976
-1315 c103 -105 103 -106 103 -155 0 -66 29 -92 92 -85 l41 5 106 -106 c58
-59 106 -109 106 -112 0 -4 -125 -131 -278 -284 l-279 -279 -282 283 -282 282
107 108 c107 107 109 108 146 103 67 -11 119 44 97 103 -9 25 -4 33 98 135 59
59 111 108 115 108 4 0 54 -48 110 -106z m-192 -1634 c0 -24 50 -60 82 -60 37
1 59 14 77 48 12 22 13 22 251 22 l240 0 0 -570 0 -570 -570 0 -570 0 0 563
c0 310 3 567 7 570 11 12 483 8 483 -3z"/>
<path d="M5159 11268 c-8 -15 -5 -20 16 -28 l25 -10 0 -180 c0 -168 -1 -180
-18 -180 -25 0 -31 -7 -25 -31 5 -18 13 -20 72 -17 59 3 66 5 69 25 2 16 -3
22 -20 25 l-23 3 0 180 0 180 23 3 c17 3 22 9 20 23 -3 18 -12 21 -66 23 -53
2 -65 -1 -73 -16z"/>
<path d="M1680 8961 c-112 -36 -170 -134 -156 -264 14 -140 104 -216 238 -204
106 9 169 71 190 186 20 108 -26 226 -103 267 -37 19 -132 27 -169 15z m133
-57 c56 -27 81 -76 85 -163 3 -64 0 -83 -20 -120 -28 -53 -76 -81 -138 -81
-98 0 -160 71 -160 182 0 61 18 118 48 152 40 45 125 59 185 30z"/>
<path d="M3491 8937 c-6 -8 -35 -26 -66 -41 -37 -19 -55 -34 -55 -47 0 -25 26
-24 68 1 40 25 39 25 39 -2 1 -13 1 -98 2 -190 l1 -168 25 0 25 0 0 230 c0
189 -2 230 -14 230 -7 0 -18 -6 -25 -13z"/>
<path d="M6878 8944 c-22 -11 -28 -22 -28 -46 l0 -31 23 21 c78 74 175 30 163
-73 -5 -41 -12 -50 -138 -160 -31 -27 -50 -54 -58 -82 -22 -72 -19 -74 132
-71 110 3 133 6 133 18 0 12 -20 16 -108 18 l-108 3 3 26 c2 20 25 46 82 93
95 80 120 123 113 194 -3 40 -11 55 -36 78 -27 24 -40 28 -89 28 -31 -1 -69
-8 -84 -16z"/>
<path d="M5183 8861 c-192 -86 -214 -101 -180 -129 10 -9 164 -79 335 -153
l42 -18 0 23 c0 22 -17 31 -157 91 -87 36 -162 70 -166 74 -4 4 63 38 150 76
87 37 162 71 166 75 5 4 7 16 5 27 -3 18 -22 11 -195 -66z"/>
<path d="M4992 8668 c2 -18 37 -37 188 -104 102 -46 189 -83 193 -83 5 -1 7 9
5 22 -2 18 -34 36 -188 104 -102 46 -189 83 -193 83 -5 0 -7 -10 -5 -22z"/>
<path d="M1750 6625 c-7 -8 -36 -26 -66 -41 -43 -21 -54 -31 -54 -50 0 -30 5
-30 57 0 l43 25 2 -192 c3 -191 3 -192 26 -195 l22 -3 0 235 c0 130 -4 236 -9
236 -5 0 -14 -7 -21 -15z"/>
<path d="M8630 6621 c-25 -13 -36 -26 -38 -45 -3 -26 -2 -27 18 -14 56 33 67
38 91 38 15 0 38 -9 53 -21 22 -17 26 -28 26 -69 0 -57 -24 -91 -111 -157 -62
-47 -89 -89 -89 -137 l0 -36 135 0 c113 0 135 2 135 15 0 12 -19 15 -110 15
-93 0 -110 2 -110 16 0 29 20 53 95 114 41 34 82 75 91 92 20 39 20 120 -1
152 -35 53 -122 71 -185 37z"/>
<path d="M3360 6400 l0 -30 130 0 130 0 0 30 0 30 -130 0 -130 0 0 -30z"/>
<path d="M6850 6400 l0 -30 130 0 130 0 0 30 0 30 -130 0 -130 0 0 -30z"/>
<path d="M4210 5165 c-159 -72 -197 -284 -72 -405 65 -63 106 -73 251 -65 140
8 174 17 202 56 42 59 28 154 -26 183 -11 6 -22 12 -24 14 -3 1 5 9 17 18 12
8 27 32 33 53 10 34 9 45 -10 84 -12 24 -32 49 -45 55 -14 6 -84 13 -158 17
-109 5 -139 3 -168 -10z m120 -231 l0 -197 -46 6 c-85 9 -164 102 -164 192 1
98 88 195 178 195 l32 0 0 -196z m123 146 c14 -9 17 -7 17 15 0 23 3 25 23 20
31 -10 47 -33 47 -70 0 -43 -19 -64 -65 -75 -85 -20 -85 -20 -85 71 l0 81 23
-16 c12 -9 30 -21 40 -26z m79 -190 c26 -27 30 -36 25 -68 -10 -62 -87 -103
-87 -47 0 30 -4 31 -37 5 -14 -11 -30 -20 -34 -20 -5 0 -9 36 -9 80 l0 80 56
0 c49 0 59 -4 86 -30z"/>
<path d="M5999 5186 c-95 -34 -150 -94 -169 -183 -23 -108 23 -215 117 -270
46 -27 52 -28 172 -26 186 4 228 21 252 102 15 52 5 88 -37 127 -32 31 -33 34
-15 43 24 13 45 73 36 103 -22 78 -50 95 -183 108 -123 12 -129 12 -173 -4z
m91 -241 l0 -195 -27 0 c-97 1 -185 100 -182 205 2 93 87 185 170 185 l39 0 0
-195z m113 153 l27 -19 0 25 c0 32 22 34 50 6 28 -28 26 -75 -5 -105 -19 -20
-34 -25 -75 -25 -27 0 -50 3 -50 8 -1 4 -3 31 -6 60 -3 29 -3 60 0 68 6 16 12
14 59 -18z m72 -174 c19 -8 45 -55 45 -84 0 -25 -51 -80 -74 -80 -11 0 -16 9
-16 31 l0 30 -33 -25 c-19 -15 -39 -26 -45 -26 -7 0 -10 28 -9 80 l1 80 57 0
c32 0 65 -3 74 -6z"/>
<path d="M5207 3714 c-4 -4 -7 -49 -7 -101 l0 -93 -95 0 -95 0 0 -30 0 -30 95
0 94 0 3 -97 c3 -95 4 -98 27 -101 35 -5 42 13 40 108 l-2 85 96 3 97 3 0 29
0 30 -95 0 c-84 0 -95 2 -95 18 -5 184 -3 177 -30 180 -14 2 -29 0 -33 -4z"/>
<path d="M5135 1977 c-85 -39 -130 -132 -123 -254 4 -61 10 -81 34 -116 17
-23 44 -51 62 -63 66 -45 181 -39 250 13 49 37 75 96 80 185 4 69 2 83 -23
133 -38 79 -86 109 -179 113 -44 1 -82 -3 -101 -11z m175 -56 c63 -45 90 -134
69 -230 -17 -83 -78 -131 -162 -131 -35 0 -107 41 -122 70 -63 122 -25 267 80
305 47 17 99 12 135 -14z"/>
</g>
</svg>
