<?xml version="1.0" standalone="no"?>
<!DOCTYPE svg PUBLIC "-//W3C//DTD SVG 20010904//EN"
 "http://www.w3.org/TR/2001/REC-SVG-20010904/DTD/svg10.dtd">
<svg version="1.0" xmlns="http://www.w3.org/2000/svg"
 width="834pt" height="1066pt" viewBox="0 0 834 1066"
 preserveAspectRatio="xMidYMid meet">
<metadata>
Created by potrace 1.15, written by Peter Selinger 2001-2017
</metadata>
<g transform="translate(0.000000,1066.000000) scale(0.100000,-0.100000)"
fill="#000000" stroke="none">
<path d="M3628 10582 l-38 -3 0 -590 0 -589 290 0 290 0 0 -535 0 -535 -24
-12 c-31 -13 -50 -58 -42 -95 6 -26 -12 -47 -249 -285 l-255 -258 -250 0
c-237 0 -249 1 -255 19 -3 11 -21 28 -39 39 -25 15 -35 29 -41 58 -24 132
-124 279 -244 358 -201 134 -433 138 -645 12 -151 -90 -276 -293 -276 -448 l0
-38 -240 0 -240 0 -40 40 -40 40 -2 247 -3 248 -590 0 -590 0 0 -590 0 -590
593 -3 592 -2 0 250 0 250 40 40 40 40 240 0 240 0 0 -37 c1 -97 67 -252 147
-342 61 -70 171 -141 264 -172 91 -30 253 -33 334 -7 217 70 372 229 417 427
10 44 18 57 44 73 18 11 36 28 39 39 6 18 18 19 257 19 l250 0 109 -107 c108
-106 109 -107 102 -145 -7 -46 9 -81 43 -97 l24 -11 0 -247 0 -248 -547 -546
-548 -545 -58 1 -58 2 -115 114 -114 114 -263 -262 -262 -262 -43 6 c-36 5
-47 2 -67 -17 -14 -13 -25 -29 -25 -37 0 -10 -48 -13 -244 -13 l-244 0 -6 48
c-27 186 -114 332 -258 428 -115 78 -187 99 -333 99 -139 0 -213 -20 -312 -84
-179 -115 -278 -296 -277 -506 1 -167 62 -307 185 -426 105 -101 254 -159 407
-159 289 0 524 199 579 489 l17 91 236 0 235 0 29 -36 c27 -34 31 -36 74 -31
l46 5 516 -517 515 -516 -1 -58 -1 -58 -111 -113 c-62 -62 -112 -117 -112
-122 0 -5 246 -255 547 -556 l548 -548 1 -57 0 -58 -115 -118 -116 -117 293
-293 292 -292 0 -247 c0 -237 -1 -247 -20 -253 -11 -3 -27 -19 -37 -36 l-17
-29 -253 0 -253 0 0 -595 0 -595 593 2 592 3 0 590 0 590 -247 3 -248 2 -44
44 -45 44 0 238 0 239 294 295 295 295 -119 119 c-113 113 -119 120 -109 147
7 19 6 34 -2 50 -11 20 23 57 544 578 l556 556 -119 119 c-116 115 -119 120
-109 148 7 20 7 37 0 52 -9 21 29 62 511 543 l522 521 38 -5 c42 -6 82 14 92
47 6 19 14 20 249 20 l243 0 5 -58 c22 -239 205 -445 449 -508 87 -22 241 -15
329 15 138 48 270 163 335 290 118 236 76 502 -109 686 -188 186 -459 229
-689 108 -173 -91 -297 -272 -314 -455 l-6 -58 -243 0 c-235 0 -243 1 -249 20
-11 33 -50 53 -94 47 l-38 -5 -259 259 c-142 143 -262 259 -265 259 -4 0 -57
-50 -118 -111 l-112 -112 -60 -1 -59 -1 -549 550 -549 550 -1 239 -1 239 30
19 c38 23 54 62 41 98 -8 25 -3 33 72 108 80 79 83 81 128 79 49 -2 89 21 89
50 0 10 46 13 244 13 267 0 256 3 256 -60 0 -51 48 -183 90 -247 85 -129 227
-227 375 -258 132 -28 253 -12 384 50 94 45 214 161 258 250 54 107 67 161 68
275 0 116 -12 173 -58 265 -76 155 -202 260 -372 311 -82 24 -239 24 -320 0
-229 -69 -400 -269 -424 -496 l-6 -55 -246 -3 -246 -2 -11 25 c-15 33 -56 49
-92 36 -26 -9 -38 2 -257 223 -230 230 -231 231 -226 269 6 40 -17 87 -41 87
-8 0 -17 7 -20 16 -3 8 -5 250 -3 537 l2 522 293 3 292 2 0 590 0 590 -27 0
c-781 4 -1095 4 -1125 2z m1122 -592 l0 -570 -567 2 -568 3 -3 568 -2 567 570
0 570 0 0 -570z m-3490 -2001 l0 -246 -25 -11 c-38 -17 -50 -59 -30 -100 8
-19 24 -36 35 -39 18 -5 19 -18 22 -245 2 -167 0 -243 -8 -249 -7 -5 -238 -8
-565 -7 l-554 3 -3 567 -2 568 542 2 c299 2 553 3 565 3 l23 0 0 -246z m1389
204 c134 -53 233 -145 301 -279 37 -75 60 -166 41 -172 -25 -8 -51 -47 -51
-77 0 -30 30 -75 50 -75 27 0 -17 -147 -68 -226 -110 -169 -284 -265 -480
-265 -110 0 -167 13 -264 63 -271 139 -382 466 -254 743 126 271 448 399 725
288z m3442 17 c179 -56 323 -200 380 -380 29 -90 29 -240 0 -330 -47 -149
-159 -279 -293 -344 -90 -43 -151 -57 -250 -58 -240 -1 -448 142 -535 370 -34
89 -43 238 -19 331 51 199 209 365 397 415 82 22 243 20 320 -4z m-1883 -41
c28 9 38 1 257 -219 215 -215 227 -229 221 -257 -4 -16 -3 -41 3 -55 9 -23 2
-32 -74 -108 -82 -82 -83 -82 -124 -75 -37 6 -44 4 -72 -25 -28 -28 -31 -35
-25 -72 l7 -42 -108 -108 -108 -108 -112 112 c-101 100 -110 113 -102 135 12
33 -13 90 -46 105 -18 8 -34 9 -53 1 -26 -9 -33 -4 -140 101 l-112 111 257
257 c230 230 259 255 279 248 12 -5 36 -5 52 -1z m-48 -1086 c0 -10 -243 -253
-252 -253 -5 0 -8 103 -8 228 0 228 0 229 23 240 20 9 32 0 130 -99 59 -60
107 -112 107 -116z m300 -26 l0 -232 -130 130 -130 130 112 112 c154 154 148
159 148 -140z m-137 -131 l137 -134 0 -1453 0 -1454 285 -285 c157 -157 285
-289 285 -295 0 -6 -114 -124 -253 -263 -244 -244 -254 -253 -280 -243 -17 7
-36 7 -50 2 -22 -8 -36 3 -138 105 -62 63 -118 114 -124 114 -5 0 -62 -52
-126 -116 -108 -108 -117 -114 -140 -104 -16 7 -32 8 -49 1 -23 -9 -42 7 -283
247 l-257 257 285 285 285 285 0 1454 0 1454 137 139 c75 76 140 138 143 138
4 0 68 -60 143 -134z m-443 -1588 l0 -1423 -285 285 -285 285 -115 -115 -115
-114 -59 -1 -60 -1 -253 253 -253 253 290 290 290 290 -115 115 -115 115 -1
58 0 57 535 538 c295 295 537 537 538 537 2 0 3 -640 3 -1422z m1676 293 l-1
-59 -113 -118 -114 -117 291 -291 291 -291 -252 -251 -253 -251 -62 1 -63 1
-113 113 -113 113 -279 -280 c-153 -154 -282 -278 -286 -275 -9 5 -12 2818 -3
2827 4 3 246 -234 539 -528 l532 -535 -1 -59z m-4741 264 c187 -39 344 -175
415 -360 17 -46 24 -87 28 -175 4 -105 2 -122 -22 -195 -64 -193 -207 -325
-404 -376 -95 -24 -179 -24 -275 0 -88 23 -133 44 -204 98 -143 107 -223 271
-223 454 0 146 50 275 146 379 144 155 336 217 539 175z m6970 0 c245 -52 431
-261 452 -509 19 -230 -110 -454 -319 -555 -169 -82 -334 -81 -504 4 -181 89
-295 260 -310 465 -17 222 110 447 307 544 126 62 244 78 374 51z m-5234 -101
l106 -106 -5 -43 c-4 -37 -1 -47 23 -70 23 -24 32 -27 69 -22 l42 6 110 -110
109 -109 -283 -283 -282 -282 -253 253 -253 253 1 60 1 60 249 249 c138 138
252 250 255 250 2 0 53 -48 111 -106z m3633 -144 l249 -250 1 -60 1 -60 -252
-252 -252 -252 -32 29 c-143 136 -529 529 -527 535 2 5 49 56 106 114 94 96
106 105 132 99 68 -13 119 35 105 99 -7 29 0 38 101 139 60 60 111 109 114
109 3 0 117 -112 254 -250z m-2323 -1753 c9 -15 -32 -60 -268 -297 l-279 -280
-282 283 -282 283 110 111 c104 104 113 111 139 103 37 -10 89 14 97 47 4 13
4 37 0 54 -5 28 2 38 107 139 l112 109 268 -267 c147 -147 272 -275 278 -285z
m1407 302 c-20 -58 42 -121 100 -101 25 9 34 3 140 -102 l112 -111 -282 -282
-283 -283 -282 282 -283 283 282 282 283 283 111 -111 c107 -106 112 -113 102
-140z m-976 -1315 c91 -94 103 -110 100 -137 -6 -70 38 -115 101 -103 33 6 38
3 141 -101 58 -59 106 -109 106 -112 0 -4 -125 -131 -278 -284 l-279 -279
-282 283 -282 282 107 108 c107 107 109 108 146 103 67 -11 119 44 97 103 -9
25 -4 33 98 135 59 59 111 108 115 108 4 0 54 -48 110 -106z m-192 -1634 c0
-24 50 -60 82 -60 37 1 59 14 77 48 12 22 13 22 251 22 l240 0 0 -570 0 -570
-570 0 -570 0 0 563 c0 310 3 567 7 570 11 12 483 8 483 -3z"/>
<path d="M4110 10210 c-9 -17 -7 -22 15 -30 l25 -10 0 -180 0 -180 -24 0 c-20
0 -22 -4 -18 -25 4 -25 7 -26 71 -23 59 3 66 5 69 25 2 16 -3 22 -20 25 l-23
3 0 180 0 180 23 3 c17 3 22 9 20 25 -3 20 -10 22 -65 24 -54 3 -64 0 -73 -17z"/>
<path d="M630 7901 c-111 -36 -170 -137 -157 -265 14 -133 105 -214 231 -204
110 9 177 72 198 185 20 110 -25 228 -103 269 -37 19 -132 27 -169 15z m133
-57 c56 -27 81 -76 85 -163 3 -64 0 -83 -20 -120 -28 -53 -76 -81 -138 -81
-98 0 -160 71 -160 182 0 61 18 118 48 152 40 45 125 59 185 30z"/>
<path d="M2441 7877 c-6 -8 -35 -26 -66 -41 -37 -19 -55 -34 -55 -47 0 -25 26
-24 68 1 40 25 39 25 39 -2 1 -13 1 -98 2 -190 l1 -168 25 0 25 0 0 230 c0
189 -2 230 -14 230 -7 0 -18 -6 -25 -13z"/>
<path d="M5828 7884 c-22 -11 -28 -22 -28 -46 l0 -31 23 21 c78 74 175 30 163
-73 -5 -41 -12 -50 -138 -160 -31 -27 -50 -54 -58 -82 -22 -72 -19 -74 132
-71 110 3 133 6 133 18 0 12 -20 16 -108 18 l-108 3 3 26 c2 20 25 46 82 93
95 80 120 123 113 194 -3 40 -11 55 -36 78 -27 24 -40 28 -89 28 -31 -1 -69
-8 -84 -16z"/>
<path d="M4133 7801 c-192 -86 -214 -101 -180 -129 10 -9 164 -79 335 -153
l42 -18 0 23 c0 21 -17 31 -147 86 -202 85 -192 80 -162 95 13 7 85 39 159 70
74 32 139 61 143 65 5 4 7 17 5 27 -3 18 -22 12 -195 -66z"/>
<path d="M3942 7608 c2 -18 37 -37 188 -104 102 -46 189 -83 193 -83 5 -1 7 9
5 22 -2 18 -34 36 -188 104 -102 46 -189 83 -193 83 -5 0 -7 -10 -5 -22z"/>
<path d="M700 5565 c-7 -8 -36 -26 -66 -41 -43 -21 -54 -31 -54 -50 0 -30 5
-30 57 0 l43 25 2 -192 c3 -191 3 -192 26 -195 l22 -3 0 235 c0 130 -4 236 -9
236 -5 0 -14 -7 -21 -15z"/>
<path d="M7580 5561 c-25 -13 -36 -26 -38 -45 -3 -26 -2 -27 18 -14 13 7 32
19 44 25 59 35 127 -4 128 -74 1 -54 -16 -79 -94 -143 -81 -67 -108 -104 -108
-152 l0 -38 135 0 c113 0 135 2 135 15 0 12 -19 15 -110 15 -93 0 -110 2 -110
16 0 29 20 53 95 114 88 72 105 100 105 173 0 44 -5 59 -25 81 -45 49 -114 60
-175 27z"/>
<path d="M2310 5340 l0 -30 130 0 130 0 0 30 0 30 -130 0 -130 0 0 -30z"/>
<path d="M5800 5340 l0 -30 130 0 130 0 0 30 0 30 -130 0 -130 0 0 -30z"/>
<path d="M3160 4105 c-159 -72 -197 -284 -72 -405 65 -63 106 -73 251 -65 139
8 174 17 200 54 43 60 30 156 -24 185 -11 6 -22 12 -24 13 -2 2 7 12 21 23 37
29 44 81 18 134 -11 24 -31 48 -44 54 -14 6 -84 13 -158 17 -109 5 -139 3
-168 -10z m120 -231 l0 -197 -46 6 c-85 9 -164 102 -164 192 1 98 88 195 178
195 l32 0 0 -196z m123 146 c14 -9 17 -7 17 15 0 23 3 25 23 20 31 -10 47 -33
47 -70 0 -43 -19 -64 -65 -75 -85 -20 -85 -20 -85 71 l0 81 23 -16 c12 -9 30
-21 40 -26z m79 -190 c26 -27 30 -36 25 -68 -10 -62 -87 -103 -87 -47 0 30 -4
31 -37 5 -14 -11 -30 -20 -34 -20 -5 0 -9 36 -9 80 l0 80 56 0 c49 0 59 -4 86
-30z"/>
<path d="M4947 4126 c-91 -33 -149 -96 -167 -183 -23 -108 23 -215 117 -270
46 -27 52 -28 171 -26 186 4 229 21 253 102 15 51 5 88 -35 126 l-33 31 23 21
c50 45 35 147 -27 179 -16 8 -73 19 -127 24 -123 12 -129 12 -175 -4z m93
-242 l0 -197 -41 6 c-50 7 -113 47 -139 90 -39 64 -35 170 9 224 34 41 92 73
132 73 l39 0 0 -196z m113 154 l27 -19 0 25 c0 32 22 34 50 6 30 -30 27 -83
-6 -109 -31 -24 -123 -30 -125 -8 0 6 -3 34 -5 61 -3 27 -2 55 0 63 6 15 12
13 59 -19z m72 -174 c19 -8 45 -55 45 -84 0 -25 -51 -80 -74 -80 -11 0 -16 9
-16 31 l0 31 -31 -27 c-17 -14 -37 -24 -43 -22 -7 2 -11 33 -12 80 l0 77 57 0
c32 0 65 -3 74 -6z"/>
<path d="M4157 2654 c-4 -4 -7 -49 -7 -101 l0 -93 -95 0 -95 0 0 -30 0 -30 95
0 94 0 3 -97 c3 -95 4 -98 27 -101 35 -5 42 13 40 108 l-2 85 96 3 97 3 0 29
0 30 -95 0 c-84 0 -95 2 -95 18 -4 182 -3 177 -30 180 -14 2 -29 0 -33 -4z"/>
<path d="M4085 917 c-85 -39 -130 -132 -123 -254 4 -61 10 -81 34 -116 57 -80
138 -111 232 -87 102 25 152 95 160 222 4 69 2 83 -23 133 -38 79 -86 109
-179 113 -44 1 -82 -3 -101 -11z m175 -56 c63 -45 90 -134 69 -230 -22 -106
-118 -156 -218 -115 -137 58 -128 308 14 359 47 17 99 12 135 -14z"/>
</g>
</svg>
